FiraMono-Regular.ufo
<glyph name="quotedbl" format="2">
  <advance width="600"/>
  <unicode hex="0022"/>
  <outline>
    <contour>
      <point x="176" y="477" type="line"/>
      <point x="254" y="477" type="line"/>
      <point x="270" y="739" type="line"/>
      <point x="160" y="739" type="line"/>
    </contour>
    <contour>
      <point x="346" y="477" type="line"/>
      <point x="424" y="477" type="line"/>
      <point x="440" y="739" type="line"/>
      <point x="330" y="739" type="line"/>
    </contour>
  </outline>
</glyph>
<glyph name="A" format="2">
  <advance width="600"/>
  <unicode hex="0041"/>
  <anchor x="298" y="0" name="bottom"/>
  <anchor x="548" y="0" name="ogonek"/>
  <anchor x="300" y="689" name="top"/>
  <anchor x="196" y="689" name="topleft"/>
  <outline>
    <contour>
      <point x="430" y="173" type="line"/>
      <point x="483" y="0" type="line"/>
      <point x="583" y="0" type="line"/>
      <point x="360" y="689" type="line"/>
      <point x="240" y="689" type="line"/>
      <point x="17" y="0" type="line"/>
      <point x="112" y="0" type="line"/>
      <point x="165" y="173" type="line"/>
    </contour>
    <contour>
      <point x="188" y="250" type="line"/>
      <point x="298" y="611" type="line"/>
      <point x="407" y="250" type="line"/>
    </contour>
  </outline>
</glyph>
<glyph name="D" format="2">
  <advance width="600"/>
  <unicode hex="0044"/>
  <anchor x="300" y="0" name="bottom"/>
  <anchor x="300" y="345" name="center"/>
  <anchor x="284" y="689" name="top"/>
  <outline>
    <contour>
      <point x="454" y="348" type="curve" smooth="yes"/>
      <point x="454" y="125"/>
      <point x="350" y="75"/>
      <point x="252" y="75" type="curve" smooth="yes"/>
      <point x="175" y="75" type="line"/>
      <point x="175" y="613" type="line"/>
      <point x="251" y="613" type="line" smooth="yes"/>
      <point x="345" y="613"/>
      <point x="454" y="582"/>
    </contour>
    <contour>
      <point x="555" y="348" type="curve" smooth="yes"/>
      <point x="555" y="634"/>
      <point x="393" y="689"/>
      <point x="230" y="689" type="curve" smooth="yes"/>
      <point x="80" y="689" type="line"/>
      <point x="80" y="0" type="line"/>
      <point x="241" y="0" type="line" smooth="yes"/>
      <point x="387" y="0"/>
      <point x="555" y="60"/>
    </contour>
  </outline>
</glyph>
<glyph name="E" format="2">
  <advance width="600"/>
  <unicode hex="0045"/>
  <anchor x="325" y="0" name="bottom"/>
  <anchor x="478" y="0" name="ogonek"/>
  <anchor x="321" y="689" name="top"/>
  <anchor x="112" y="689" name="topleft"/>
  <outline>
    <contour>
      <point x="217" y="613" type="line"/>
      <point x="509" y="613" type="line"/>
      <point x="520" y="689" type="line"/>
      <point x="122" y="689" type="line"/>
      <point x="122" y="0" type="line"/>
      <point x="528" y="0" type="line"/>
      <point x="528" y="75" type="line"/>
      <point x="217" y="75" type="line"/>
      <point x="217" y="312" type="line"/>
      <point x="471" y="312" type="line"/>
      <point x="471" y="388" type="line"/>
      <point x="217" y="388" type="line"/>
    </contour>
  </outline>
</glyph>
<glyph name="F" format="2">
  <advance width="600"/>
  <unicode hex="0046"/>
  <anchor x="300" y="0" name="bottom"/>
  <anchor x="300" y="689" name="top"/>
  <outline>
    <contour>
      <point x="230" y="613" type="line"/>
      <point x="535" y="613" type="line"/>
      <point x="546" y="689" type="line"/>
      <point x="135" y="689" type="line"/>
      <point x="135" y="0" type="line"/>
      <point x="230" y="0" type="line"/>
      <point x="230" y="303" type="line"/>
      <point x="497" y="303" type="line"/>
      <point x="497" y="378" type="line"/>
      <point x="230" y="378" type="line"/>
    </contour>
  </outline>
</glyph>
<glyph name="H" format="2">
  <advance width="600"/>
  <unicode hex="0048"/>
  <anchor x="300" y="0" name="bottom"/>
  <anchor x="530" y="0" name="bottomright"/>
  <anchor x="300" y="345" name="center"/>
  <anchor x="300" y="689" name="top"/>
  <anchor x="70" y="689" name="topleft"/>
  <outline>
    <contour>
      <point x="425" y="0" type="line"/>
      <point x="520" y="0" type="line"/>
      <point x="520" y="689" type="line"/>
      <point x="425" y="689" type="line"/>
      <point x="425" y="401" type="line"/>
      <point x="175" y="401" type="line"/>
      <point x="175" y="689" type="line"/>
      <point x="80" y="689" type="line"/>
      <point x="80" y="0" type="line"/>
      <point x="175" y="0" type="line"/>
      <point x="175" y="323" type="line"/>
      <point x="425" y="323" type="line"/>
    </contour>
  </outline>
</glyph>
<glyph name="I" format="2">
  <advance width="600"/>
  <unicode hex="0049"/>
  <anchor x="300" y="0" name="bottom"/>
  <anchor x="358" y="0" name="ogonek"/>
  <anchor x="300" y="689" name="top"/>
  <anchor x="90" y="689" name="topleft"/>
  <outline>
    <contour>
      <point x="500" y="689" type="line"/>
      <point x="100" y="689" type="line"/>
      <point x="100" y="614" type="line"/>
      <point x="252" y="614" type="line"/>
      <point x="252" y="75" type="line"/>
      <point x="100" y="75" type="line"/>
      <point x="100" y="0" type="line"/>
      <point x="500" y="0" type="line"/>
      <point x="500" y="75" type="line"/>
      <point x="348" y="75" type="line"/>
      <point x="348" y="614" type="line"/>
      <point x="500" y="614" type="line"/>
    </contour>
  </outline>
</glyph>
<glyph name="L" format="2">
  <advance width="600"/>
  <unicode hex="004C"/>
  <anchor x="330" y="0" name="bottom"/>
  <anchor x="471" y="380" name="center"/>
  <anchor x="179" y="689" name="top"/>
  <anchor x="276" y="689" name="topright"/>
  <outline>
    <contour>
      <point x="131" y="0" type="line"/>
      <point x="528" y="0" type="line"/>
      <point x="539" y="83" type="line"/>
      <point x="226" y="83" type="line"/>
      <point x="226" y="689" type="line"/>
      <point x="131" y="689" type="line"/>
    </contour>
  </outline>
</glyph>
<glyph name="R" format="2">
  <advance width="600"/>
  <unicode hex="0052"/>
  <anchor x="300" y="0" name="bottom"/>
  <anchor x="300" y="689" name="top"/>
  <outline>
    <contour>
      <point x="540" y="494" type="curve" smooth="yes"/>
      <point x="540" y="623"/>
      <point x="450" y="689"/>
      <point x="278" y="689" type="curve" smooth="yes"/>
      <point x="97" y="689" type="line"/>
      <point x="97" y="0" type="line"/>
      <point x="192" y="0" type="line"/>
      <point x="192" y="292" type="line"/>
      <point x="280" y="292" type="line"/>
      <point x="464" y="0" type="line"/>
      <point x="577" y="0" type="line"/>
      <point x="375" y="304" type="line"/>
      <point x="468" y="328"/>
      <point x="540" y="391"/>
    </contour>
    <contour>
      <point x="439" y="494" type="curve" smooth="yes"/>
      <point x="439" y="401"/>
      <point x="384" y="365"/>
      <point x="288" y="365" type="curve" smooth="yes"/>
      <point x="192" y="365" type="line"/>
      <point x="192" y="615" type="line"/>
      <point x="287" y="615" type="line" smooth="yes"/>
      <point x="390" y="615"/>
      <point x="439" y="580"/>
    </contour>
  </outline>
</glyph>
<glyph name="T" format="2">
  <advance width="600"/>
  <unicode hex="0054"/>
  <anchor x="299" y="0" name="bottom"/>
  <anchor x="356" y="0" name="bottomright"/>
  <anchor x="300" y="345" name="center"/>
  <anchor x="299" y="689" name="top"/>
  <outline>
    <contour>
      <point x="346" y="609" type="line"/>
      <point x="552" y="609" type="line"/>
      <point x="562" y="689" type="line"/>
      <point x="38" y="689" type="line"/>
      <point x="38" y="609" type="line"/>
      <point x="251" y="609" type="line"/>
      <point x="251" y="0" type="line"/>
      <point x="346" y="0" type="line"/>
    </contour>
  </outline>
</glyph>
<glyph name="U" format="2">
  <advance width="600"/>
  <unicode hex="0055"/>
  <anchor x="300" y="0" name="bottom"/>
  <anchor x="389" y="0" name="ogonek"/>
  <anchor x="300" y="689" name="top"/>
  <outline>
    <contour>
      <point x="531" y="689" type="line"/>
      <point x="435" y="689" type="line"/>
      <point x="435" y="228" type="line" smooth="yes"/>
      <point x="435" y="121"/>
      <point x="388" y="68"/>
      <point x="299" y="68" type="curve" smooth="yes"/>
      <point x="211" y="68"/>
      <point x="164" y="121"/>
      <point x="164" y="228" type="curve" smooth="yes"/>
      <point x="164" y="689" type="line"/>
      <point x="69" y="689" type="line"/>
      <point x="69" y="224" type="line" smooth="yes"/>
      <point x="69" y="84"/>
      <point x="154" y="-12"/>
      <point x="299" y="-12" type="curve" smooth="yes"/>
      <point x="442" y="-12"/>
      <point x="531" y="84"/>
      <point x="531" y="224" type="curve" smooth="yes"/>
    </contour>
  </outline>
</glyph>
<glyph name="V" format="2">
  <advance width="600"/>
  <unicode hex="0056"/>
  <anchor x="300" y="0" name="bottom"/>
  <anchor x="300" y="689" name="top"/>
  <outline>
    <contour>
      <point x="302" y="102" type="line"/>
      <point x="124" y="689" type="line"/>
      <point x="22" y="689" type="line"/>
      <point x="249" y="0" type="line"/>
      <point x="351" y="0" type="line"/>
      <point x="578" y="689" type="line"/>
      <point x="482" y="689" type="line"/>
    </contour>
  </outline>
</glyph>
<glyph name="W" format="2">
  <advance width="600"/>
  <unicode hex="0057"/>
  <anchor x="300" y="0" name="bottom"/>
  <anchor x="300" y="689" name="top"/>
  <outline>
    <contour>
      <point x="596" y="689" type="line"/>
      <point x="509" y="689" type="line"/>
      <point x="432" y="100" type="line"/>
      <point x="356" y="609" type="line"/>
      <point x="246" y="609" type="line"/>
      <point x="166" y="100" type="line"/>
      <point x="98" y="689" type="line"/>
      <point x="4" y="689" type="line"/>
      <point x="98" y="0" type="line"/>
      <point x="221" y="0" type="line"/>
      <point x="298" y="517" type="line"/>
      <point x="374" y="0" type="line"/>
      <point x="494" y="0" type="line"/>
    </contour>
  </outline>
</glyph>
<glyph name="X" format="2">
  <advance width="600"/>
  <unicode hex="0058"/>
  <anchor x="300" y="0" name="bottom"/>
  <anchor x="527" y="0" name="bottomright"/>
  <anchor x="300" y="689" name="top"/>
  <outline>
    <contour>
      <point x="46" y="689" type="line"/>
      <point x="242" y="367" type="line"/>
      <point x="28" y="0" type="line"/>
      <point x="130" y="0" type="line"/>
      <point x="298" y="306" type="line"/>
      <point x="464" y="0" type="line"/>
      <point x="572" y="0" type="line"/>
      <point x="355" y="372" type="line"/>
      <point x="549" y="689" type="line"/>
      <point x="447" y="689" type="line"/>
      <point x="300" y="429" type="line"/>
      <point x="154" y="689" type="line"/>
    </contour>
  </outline>
</glyph>
<glyph name="Y" format="2">
  <advance width="600"/>
  <unicode hex="0059"/>
  <anchor x="300" y="0" name="bottom"/>
  <anchor x="303" y="689" name="top"/>
  <anchor x="20" y="689" name="topleft"/>
  <outline>
    <contour>
      <point x="348" y="265" type="line"/>
      <point x="580" y="689" type="line"/>
      <point x="481" y="689" type="line"/>
      <point x="302" y="349" type="line"/>
      <point x="125" y="689" type="line"/>
      <point x="20" y="689" type="line"/>
      <point x="252" y="264" type="line"/>
      <point x="252" y="0" type="line"/>
      <point x="348" y="0" type="line"/>
    </contour>
  </outline>
</glyph>
<glyph name="Z" format="2">
  <advance width="600"/>
  <unicode hex="005A"/>
  <anchor x="300" y="0" name="bottom"/>
  <anchor x="318" y="689" name="top"/>
  <outline>
    <contour>
      <point x="174" y="81" type="line"/>
      <point x="531" y="612" type="line"/>
      <point x="531" y="689" type="line"/>
      <point x="104" y="689" type="line"/>
      <point x="104" y="609" type="line"/>
      <point x="428" y="609" type="line"/>
      <point x="68" y="76" type="line"/>
      <point x="68" y="0" type="line"/>
      <point x="520" y="0" type="line"/>
      <point x="531" y="81" type="line"/>
    </contour>
  </outline>
</glyph>
<glyph name="backslash" format="2">
  <advance width="600"/>
  <unicode hex="005C"/>
  <outline>
    <contour>
      <point x="50" y="775" type="line"/>
      <point x="476" y="-104" type="line"/>
      <point x="550" y="-71" type="line"/>
      <point x="123" y="810" type="line"/>
    </contour>
  </outline>
</glyph>
<glyph name="asciicircum" format="2">
  <advance width="600"/>
  <unicode hex="005E"/>
  <outline>
    <contour>
      <point x="341" y="840" type="line"/>
      <point x="259" y="840" type="line"/>
      <point x="70" y="527" type="line"/>
      <point x="167" y="527" type="line"/>
      <point x="299" y="760" type="line"/>
      <point x="432" y="527" type="line"/>
      <point x="530" y="527" type="line"/>
    </contour>
  </outline>
</glyph>
<glyph name="b" format="2">
  <advance width="600"/>
  <unicode hex="0062"/>
  <anchor x="300" y="0" name="bottom"/>
  <anchor x="300" y="739" name="top"/>
  <outline>
    <contour>
      <point x="189" y="460" type="curve"/>
      <point x="189" y="750" type="line"/>
      <point x="97" y="739" type="line"/>
      <point x="97" y="0" type="line"/>
      <point x="178" y="0" type="line"/>
      <point x="184" y="54" type="line"/>
      <point x="219" y="9"/>
      <point x="266" y="-12"/>
      <point x="326" y="-12" type="curve" smooth="yes"/>
      <point x="462" y="-12"/>
      <point x="535" y="104"/>
      <point x="535" y="264" type="curve" smooth="yes"/>
      <point x="535" y="430"/>
      <point x="478" y="539"/>
      <point x="338" y="539" type="curve" smooth="yes"/>
      <point x="278" y="539"/>
      <point x="227" y="510"/>
    </contour>
    <contour>
      <point x="304" y="61" type="curve" smooth="yes"/>
      <point x="257" y="61"/>
      <point x="216" y="86"/>
      <point x="189" y="127" type="curve"/>
      <point x="189" y="384" type="line"/>
      <point x="217" y="426"/>
      <point x="260" y="466"/>
      <point x="316" y="466" type="curve" smooth="yes"/>
      <point x="394" y="466"/>
      <point x="436" y="401"/>
      <point x="436" y="264" type="curve" smooth="yes"/>
      <point x="436" y="126"/>
      <point x="388" y="61"/>
    </contour>
  </outline>
</glyph>
<glyph name="k" format="2">
  <advance width="600"/>
  <unicode hex="006B"/>
  <anchor x="305" y="0" name="bottom"/>
  <anchor x="300" y="739" name="top"/>
  <outline>
    <contour>
      <point x="545" y="527" type="line"/>
      <point x="430" y="527" type="line"/>
      <point x="203" y="288" type="line"/>
      <point x="453" y="0" type="line"/>
      <point x="571" y="0" type="line"/>
      <point x="315" y="290" type="line"/>
    </contour>
    <contour>
      <point x="194" y="750" type="line"/>
      <point x="102" y="739" type="line"/>
      <point x="102" y="0" type="line"/>
      <point x="194" y="0" type="line"/>
    </contour>
  </outline>
</glyph>
<glyph name="l" format="2">
  <advance width="600"/>
  <unicode hex="006C"/>
  <anchor x="360" y="0" name="bottom"/>
  <anchor x="561" y="383" name="center"/>
  <anchor x="264" y="739" name="top"/>
  <anchor x="350" y="739" name="topright"/>
  <outline>
    <contour>
      <point x="310" y="739" type="line"/>
      <point x="57" y="739" type="line"/>
      <point x="57" y="668" type="line"/>
      <point x="218" y="668" type="line"/>
      <point x="218" y="140" type="line" smooth="yes"/>
      <point x="218" y="45"/>
      <point x="281" y="-12"/>
      <point x="378" y="-12" type="curve" smooth="yes"/>
      <point x="433" y="-12"/>
      <point x="477" y="1"/>
      <point x="506" y="16" type="curve"/>
      <point x="482" y="82" type="line"/>
      <point x="454" y="71"/>
      <point x="426" y="64"/>
      <point x="395" y="64" type="curve" smooth="yes"/>
      <point x="345" y="64"/>
      <point x="310" y="83"/>
      <point x="310" y="134" type="curve" smooth="yes"/>
    </contour>
  </outline>
</glyph>
<glyph name="o" format="2">
  <advance width="600"/>
  <unicode hex="006F"/>
  <anchor x="300" y="0" name="bottom"/>
  <anchor x="300" y="527" name="top"/>
  <outline>
    <contour>
      <point x="301" y="539" type="curve" smooth="yes"/>
      <point x="151" y="539"/>
      <point x="70" y="426"/>
      <point x="70" y="263" type="curve" smooth="yes"/>
      <point x="70" y="96"/>
      <point x="150" y="-12"/>
      <point x="300" y="-12" type="curve" smooth="yes"/>
      <point x="449" y="-12"/>
      <point x="530" y="101"/>
      <point x="530" y="264" type="curve" smooth="yes"/>
      <point x="530" y="431"/>
      <point x="451" y="539"/>
    </contour>
    <contour>
      <point x="301" y="465" type="curve" smooth="yes"/>
      <point x="388" y="465"/>
      <point x="432" y="401"/>
      <point x="432" y="264" type="curve" smooth="yes"/>
      <point x="432" y="126"/>
      <point x="388" y="62"/>
      <point x="300" y="62" type="curve" smooth="yes"/>
      <point x="212" y="62"/>
      <point x="168" y="126"/>
      <point x="168" y="263" type="curve" smooth="yes"/>
      <point x="168" y="401"/>
      <point x="213" y="465"/>
    </contour>
  </outline>
</glyph>
<glyph name="t" format="2">
  <advance width="600"/>
  <unicode hex="0074"/>
  <anchor x="370" y="0" name="bottom"/>
  <anchor x="300" y="264" name="center"/>
  <anchor x="243" y="652" name="top"/>
  <anchor x="331" y="759" name="topright"/>
  <outline>
    <contour>
      <point x="522" y="27" type="curve"/>
      <point x="487" y="89" type="line"/>
      <point x="459" y="74"/>
      <point x="426" y="64"/>
      <point x="387" y="64" type="curve" smooth="yes"/>
      <point x="317" y="64"/>
      <point x="289" y="94"/>
      <point x="289" y="152" type="curve" smooth="yes"/>
      <point x="289" y="457" type="line"/>
      <point x="459" y="457" type="line"/>
      <point x="470" y="527" type="line"/>
      <point x="289" y="527" type="line"/>
      <point x="289" y="657" type="line"/>
      <point x="197" y="646" type="line"/>
      <point x="197" y="527" type="line"/>
      <point x="77" y="527" type="line"/>
      <point x="77" y="457" type="line"/>
      <point x="197" y="457" type="line"/>
      <point x="197" y="151" type="line" smooth="yes"/>
      <point x="197" y="55"/>
      <point x="261" y="-12"/>
      <point x="377" y="-12" type="curve" smooth="yes"/>
      <point x="429" y="-12"/>
      <point x="485" y="3"/>
    </contour>
  </outline>
</glyph>
<glyph name="v" format="2">
  <advance width="600"/>
  <unicode hex="0076"/>
  <anchor x="300" y="0" name="bottom"/>
  <anchor x="300" y="527" name="top"/>
  <outline>
    <contour>
      <point x="543" y="527" type="line"/>
      <point x="448" y="527" type="line"/>
      <point x="302" y="81" type="line"/>
      <point x="155" y="527" type="line"/>
      <point x="57" y="527" type="line"/>
      <point x="246" y="0" type="line"/>
      <point x="353" y="0" type="line"/>
    </contour>
  </outline>
</glyph>
<glyph name="w" format="2">
  <advance width="600"/>
  <unicode hex="0077"/>
  <anchor x="300" y="0" name="bottom"/>
  <anchor x="300" y="527" name="top"/>
  <outline>
    <contour>
      <point x="494" y="0" type="line"/>
      <point x="584" y="527" type="line"/>
      <point x="496" y="527" type="line"/>
      <point x="432" y="57" type="line"/>
      <point x="356" y="460" type="line"/>
      <point x="253" y="460" type="line"/>
      <point x="172" y="57" type="line"/>
      <point x="108" y="527" type="line"/>
      <point x="16" y="527" type="line"/>
      <point x="110" y="0" type="line"/>
      <point x="232" y="0" type="line"/>
      <point x="303" y="383" type="line"/>
      <point x="369" y="0" type="line"/>
    </contour>
  </outline>
</glyph>
<glyph name="z" format="2">
  <advance width="600"/>
  <unicode hex="007A"/>
  <anchor x="300" y="0" name="bottom"/>
  <anchor x="310" y="527" name="top"/>
  <outline>
    <contour>
      <point x="211" y="77" type="line"/>
      <point x="498" y="457" type="line"/>
      <point x="498" y="527" type="line"/>
      <point x="122" y="527" type="line"/>
      <point x="122" y="449" type="line"/>
      <point x="388" y="449" type="line"/>
      <point x="99" y="69" type="line"/>
      <point x="99" y="0" type="line"/>
      <point x="490" y="0" type="line"/>
      <point x="501" y="77" type="line"/>
    </contour>
  </outline>
</glyph>
<glyph name="dieresis" format="2">
  <advance width="600"/>
  <unicode hex="00A8"/>
  <anchor x="300" y="527" name="_top"/>
  <anchor x="300" y="702" name="top"/>
  <outline>
    <contour>
      <point x="195" y="647" type="curve" smooth="yes"/>
      <point x="227" y="647"/>
      <point x="252" y="671"/>
      <point x="252" y="703" type="curve" smooth="yes"/>
      <point x="252" y="736"/>
      <point x="227" y="760"/>
      <point x="195" y="760" type="curve" smooth="yes"/>
      <point x="162" y="760"/>
      <point x="137" y="736"/>
      <point x="137" y="703" type="curve" smooth="yes"/>
      <point x="137" y="671"/>
      <point x="162" y="647"/>
    </contour>
    <contour>
      <point x="404" y="647" type="curve" smooth="yes"/>
      <point x="437" y="647"/>
      <point x="462" y="671"/>
      <point x="462" y="703" type="curve" smooth="yes"/>
      <point x="462" y="736"/>
      <point x="437" y="760"/>
      <point x="404" y="760" type="curve" smooth="yes"/>
      <point x="372" y="760"/>
      <point x="347" y="736"/>
      <point x="347" y="703" type="curve" smooth="yes"/>
      <point x="347" y="671"/>
      <point x="372" y="647"/>
    </contour>
  </outline>
</glyph>
<glyph name="macron" format="2">
  <advance width="600"/>
  <unicode hex="00AF"/>
  <anchor x="300" y="527" name="_top"/>
  <outline>
    <contour>
      <point x="436" y="674" type="line"/>
      <point x="436" y="743" type="line"/>
      <point x="163" y="743" type="line"/>
      <point x="163" y="674" type="line"/>
    </contour>
  </outline>
</glyph>
<glyph name="acute" format="2">
  <advance width="600"/>
  <unicode hex="00B4"/>
  <anchor x="300" y="527" name="_top"/>
  <outline>
    <contour>
      <point x="383" y="801" type="line"/>
      <point x="184" y="687" type="line"/>
      <point x="212" y="638" type="line"/>
      <point x="424" y="724" type="line"/>
    </contour>
  </outline>
</glyph>
<glyph name="Eth" format="2">
  <advance width="600"/>
  <unicode hex="00D0"/>
  <anchor x="310" y="0" name="bottom"/>
  <anchor x="310" y="345" name="center"/>
  <anchor x="294" y="689" name="top"/>
  <outline>
    <contour>
      <point x="339" y="388" type="line"/>
      <point x="185" y="388" type="line"/>
      <point x="19" y="388" type="line"/>
      <point x="19" y="318" type="line"/>
      <point x="90" y="318" type="line"/>
      <point x="339" y="318" type="line"/>
    </contour>
    <component base="D" xOffset="10"/>
  </outline>
</glyph>
<glyph name="dcroat" format="2">
  <advance width="600"/>
  <unicode hex="0111"/>
  <anchor x="300" y="0" name="bottom"/>
  <anchor x="300" y="264" name="center"/>
  <anchor x="300" y="739" name="top"/>
  <anchor x="533" y="739" name="topright"/>
  <outline>
    <contour>
      <point x="503" y="667" type="line"/>
      <point x="245" y="667" type="line"/>
      <point x="245" y="597" type="line"/>
      <point x="411" y="597" type="line"/>
      <point x="582" y="597" type="line"/>
      <point x="582" y="667" type="line"/>
    </contour>
    <component base="d"/>
  </outline>
</glyph>
<glyph name="hbar" format="2">
  <advance width="600"/>
  <unicode hex="0127"/>
  <anchor x="300" y="0" name="bottom"/>
  <anchor x="300" y="264" name="center"/>
  <anchor x="300" y="739" name="top"/>
  <outline>
    <contour>
      <point x="355" y="667" type="line"/>
      <point x="97" y="667" type="line"/>
      <point x="18" y="667" type="line"/>
      <point x="18" y="597" type="line"/>
      <point x="189" y="597" type="line"/>
      <point x="355" y="597" type="line"/>
    </contour>
    <component base="h"/>
  </outline>
</glyph>
<glyph name="dotlessi" format="2">
  <advance width="600"/>
  <unicode hex="0131"/>
  <anchor x="380" y="0" name="ogonek"/>
  <anchor x="301" y="527" name="top"/>
  <outline>
    <contour>
      <point x="370" y="527" type="line"/>
      <point x="122" y="527" type="line"/>
      <point x="122" y="456" type="line"/>
      <point x="278" y="456" type="line"/>
      <point x="278" y="71" type="line"/>
      <point x="117" y="71" type="line"/>
      <point x="117" y="0" type="line"/>
      <point x="517" y="0" type="line"/>
      <point x="517" y="71" type="line"/>
      <point x="370" y="71" type="line"/>
    </contour>
  </outline>
</glyph>
<glyph name="kgreenlandic" format="2">
  <advance width="600"/>
  <unicode hex="0138"/>
  <anchor x="300" y="0" name="bottom"/>
  <anchor x="300" y="527" name="top"/>
  <outline>
    <contour>
      <point x="540" y="527" type="line"/>
      <point x="425" y="527" type="line"/>
      <point x="198" y="282" type="line"/>
      <point x="448" y="0" type="line"/>
      <point x="566" y="0" type="line"/>
      <point x="308" y="288" type="line"/>
    </contour>
    <contour>
      <point x="189" y="527" type="line"/>
      <point x="97" y="527" type="line"/>
      <point x="97" y="0" type="line"/>
      <point x="189" y="0" type="line"/>
    </contour>
  </outline>
</glyph>
<glyph name="Lslash" format="2">
  <advance width="600"/>
  <unicode hex="0141"/>
  <anchor x="330" y="0" name="bottom"/>
  <anchor x="471" y="380" name="center"/>
  <anchor x="179" y="689" name="top"/>
  <anchor x="276" y="689" name="topright"/>
  <outline>
    <contour>
      <point x="75" y="229" type="line"/>
      <point x="425" y="446" type="line"/>
      <point x="386" y="505" type="line"/>
      <point x="131" y="346" type="line"/>
      <point x="37" y="289" type="line"/>
    </contour>
    <component base="L"/>
  </outline>
</glyph>
<glyph name="lslash" format="2">
  <advance width="600"/>
  <unicode hex="0142"/>
  <anchor x="360" y="0" name="bottom"/>
  <anchor x="561" y="383" name="center"/>
  <anchor x="264" y="739" name="top"/>
  <anchor x="350" y="739" name="topright"/>
  <outline>
    <contour>
      <point x="218" y="381" type="line"/>
      <point x="115" y="319" type="line"/>
      <point x="153" y="261" type="line"/>
      <point x="310" y="357" type="line"/>
      <point x="435" y="434" type="line"/>
      <point x="397" y="492" type="line"/>
    </contour>
    <component base="l"/>
  </outline>
</glyph>
<glyph name="napostrophe" format="2">
  <advance width="600"/>
  <unicode hex="0149"/>
  <anchor x="311" y="0" name="bottom"/>
  <anchor x="310" y="527" name="top"/>
  <outline>
    <contour>
      <point x="63" y="753" type="curve" smooth="yes"/>
      <point x="31" y="753"/>
      <point x="5" y="729"/>
      <point x="5" y="697" type="curve" smooth="yes"/>
      <point x="5" y="678"/>
      <point x="15" y="662"/>
      <point x="29" y="650" type="curve"/>
      <point x="0" y="534" type="line"/>
      <point x="53" y="534" type="line"/>
      <point x="94" y="620" type="line" smooth="yes"/>
      <point x="115" y="664"/>
      <point x="120" y="680"/>
      <point x="120" y="697" type="curve" smooth="yes"/>
      <point x="120" y="729"/>
      <point x="95" y="753"/>
    </contour>
    <component base="n" xOffset="10"/>
  </outline>
</glyph>
<glyph name="Tbar" format="2">
  <advance width="600"/>
  <unicode hex="0166"/>
  <anchor x="299" y="0" name="bottom"/>
  <anchor x="356" y="0" name="bottomright"/>
  <anchor x="300" y="345" name="center"/>
  <anchor x="299" y="689" name="top"/>
  <outline>
    <contour>
      <point x="346" y="346" type="line"/>
      <point x="476" y="346" type="line"/>
      <point x="476" y="416" type="line"/>
      <point x="251" y="416" type="line"/>
      <point x="122" y="416" type="line"/>
      <point x="122" y="346" type="line"/>
    </contour>
    <component base="T"/>
  </outline>
</glyph>
<glyph name="tbar" format="2">
  <advance width="600"/>
  <unicode hex="0167"/>
  <anchor x="370" y="0" name="bottom"/>
  <anchor x="300" y="264" name="center"/>
  <anchor x="243" y="652" name="top"/>
  <anchor x="331" y="759" name="topright"/>
  <outline>
    <contour>
      <point x="460" y="353" type="line"/>
      <point x="197" y="353" type="line"/>
      <point x="88" y="353" type="line"/>
      <point x="88" y="285" type="line"/>
      <point x="289" y="285" type="line"/>
      <point x="460" y="285" type="line"/>
    </contour>
    <component base="t"/>
  </outline>
</glyph>
<glyph name="primemod" format="2">
  <advance width="600"/>
  <unicode hex="02B9"/>
  <outline>
    <contour>
      <point x="208" y="427" type="line"/>
      <point x="277" y="427" type="line"/>
      <point x="392" y="689" type="line"/>
      <point x="293" y="689" type="line"/>
    </contour>
  </outline>
</glyph>
<glyph name="caron" format="2">
  <advance width="600"/>
  <unicode hex="02C7"/>
  <anchor x="300" y="527" name="_top"/>
  <outline>
    <contour>
      <point x="426" y="792" type="line"/>
      <point x="301" y="701" type="line"/>
      <point x="176" y="792" type="line"/>
      <point x="134" y="748" type="line"/>
      <point x="270" y="627" type="line"/>
      <point x="331" y="627" type="line"/>
      <point x="466" y="748" type="line"/>
    </contour>
  </outline>
</glyph>
<glyph name="breve" format="2">
  <advance width="600"/>
  <unicode hex="02D8"/>
  <anchor x="300" y="527" name="_top"/>
  <outline>
    <contour>
      <point x="298" y="628" type="curve" smooth="yes"/>
      <point x="392" y="628"/>
      <point x="443" y="704"/>
      <point x="451" y="768" type="curve"/>
      <point x="390" y="781" type="line"/>
      <point x="376" y="731"/>
      <point x="346" y="697"/>
      <point x="298" y="697" type="curve" smooth="yes"/>
      <point x="251" y="697"/>
      <point x="223" y="731"/>
      <point x="209" y="781" type="curve"/>
      <point x="148" y="768" type="line"/>
      <point x="156" y="704"/>
      <point x="205" y="628"/>
    </contour>
  </outline>
</glyph>
<glyph name="dotaccent" format="2">
  <advance width="600"/>
  <unicode hex="02D9"/>
  <anchor x="299" y="716" name="_center"/>
  <anchor x="300" y="527" name="_top"/>
  <outline>
    <contour>
      <point x="299" y="777" type="curve" smooth="yes"/>
      <point x="261" y="777"/>
      <point x="235" y="750"/>
      <point x="235" y="715" type="curve" smooth="yes"/>
      <point x="235" y="679"/>
      <point x="261" y="652"/>
      <point x="299" y="652" type="curve" smooth="yes"/>
      <point x="338" y="652"/>
      <point x="364" y="679"/>
      <point x="364" y="715" type="curve" smooth="yes"/>
      <point x="364" y="750"/>
      <point x="338" y="777"/>
    </contour>
  </outline>
</glyph>
<glyph name="gravecomb" format="2">
  <unicode hex="0300"/>
  <anchor x="300" y="527" name="_top"/>
  <outline>
    <contour>
      <point x="220" y="801" type="line"/>
      <point x="179" y="724" type="line"/>
      <point x="391" y="638" type="line"/>
      <point x="419" y="687" type="line"/>
    </contour>
  </outline>
</glyph>
<glyph name="acutecomb" format="2">
  <unicode hex="0301"/>
  <anchor x="300" y="527" name="_top"/>
  <outline>
    <contour>
      <point x="383" y="801" type="line"/>
      <point x="184" y="687" type="line"/>
      <point x="212" y="638" type="line"/>
      <point x="424" y="724" type="line"/>
    </contour>
  </outline>
</glyph>
<glyph name="circumflexcomb" format="2">
  <unicode hex="0302"/>
  <anchor x="300" y="527" name="_top"/>
  <outline>
    <contour>
      <point x="331" y="752" type="line"/>
      <point x="270" y="752" type="line"/>
      <point x="134" y="642" type="line"/>
      <point x="174" y="597" type="line"/>
      <point x="300" y="678" type="line"/>
      <point x="427" y="597" type="line"/>
      <point x="466" y="642" type="line"/>
    </contour>
  </outline>
</glyph>
<glyph name="caroncomb" format="2">
  <unicode hex="030C"/>
  <anchor x="300" y="527" name="_top"/>
  <outline>
    <contour>
      <point x="427" y="737" type="line"/>
      <point x="300" y="656" type="line"/>
      <point x="174" y="737" type="line"/>
      <point x="134" y="692" type="line"/>
      <point x="270" y="582" type="line"/>
      <point x="331" y="582" type="line"/>
      <point x="466" y="692" type="line"/>
    </contour>
  </outline>
</glyph>
<glyph name="commaaccent" format="2">
  <unicode hex="0326"/>
  <anchor x="300" y="0" name="_bottom"/>
  <outline>
    <contour>
      <point x="303" y="-70" type="curve" smooth="yes"/>
      <point x="271" y="-70"/>
      <point x="246" y="-94"/>
      <point x="246" y="-126" type="curve" smooth="yes"/>
      <point x="246" y="-145"/>
      <point x="255" y="-162"/>
      <point x="269" y="-173" type="curve"/>
      <point x="240" y="-290" type="line"/>
      <point x="294" y="-290" type="line"/>
      <point x="344" y="-184" type="line" smooth="yes"/>
      <point x="355" y="-160"/>
      <point x="360" y="-144"/>
      <point x="360" y="-126" type="curve" smooth="yes"/>
      <point x="360" y="-94"/>
      <point x="335" y="-70"/>
    </contour>
  </outline>
</glyph>
<glyph name="strokeshortoverlay" format="2">
  <unicode hex="0335"/>
  <outline>
    <contour>
      <point x="474" y="278" type="line"/>
      <point x="474" y="348" type="line"/>
      <point x="125" y="348" type="line"/>
      <point x="125" y="278" type="line"/>
    </contour>
  </outline>
</glyph>
<glyph name="strokelongoverlay" format="2">
  <unicode hex="0336"/>
  <outline>
    <contour>
      <point x="627" y="278" type="line"/>
      <point x="627" y="348" type="line"/>
      <point x="-26" y="348" type="line"/>
      <point x="-26" y="278" type="line"/>
    </contour>
  </outline>
</glyph>
<glyph name="ypogegrammenicomb" format="2">
  <unicode hex="0345"/>
  <anchor x="235" y="0" name="_bottom"/>
  <anchor x="310" y="-190" name="bottom"/>
  <outline>
    <contour>
      <point x="307" y="-190" type="curve" smooth="yes"/>
      <point x="354" y="-190"/>
      <point x="385" y="-171"/>
      <point x="406" y="-155" type="curve"/>
      <point x="372" y="-108" type="line"/>
      <point x="354" y="-119"/>
      <point x="340" y="-125"/>
      <point x="316" y="-125" type="curve" smooth="yes"/>
      <point x="288" y="-125"/>
      <point x="274" y="-111"/>
      <point x="274" y="-83" type="curve" smooth="yes"/>
      <point x="274" y="-39" type="line"/>
      <point x="195" y="-39" type="line"/>
      <point x="195" y="-85" type="line" smooth="yes"/>
      <point x="195" y="-148"/>
      <point x="236" y="-190"/>
    </contour>
  </outline>
</glyph>
<glyph name="Heta" format="2">
  <advance width="600"/>
  <unicode hex="0370"/>
  <anchor x="300" y="0" name="bottom"/>
  <anchor x="300" y="689" name="top"/>
  <outline>
    <contour>
      <point x="488" y="323" type="line"/>
      <point x="488" y="401" type="line"/>
      <point x="207" y="401" type="line"/>
      <point x="207" y="689" type="line"/>
      <point x="112" y="689" type="line"/>
      <point x="112" y="0" type="line"/>
      <point x="207" y="0" type="line"/>
      <point x="207" y="323" type="line"/>
    </contour>
  </outline>
</glyph>
<glyph name="heta" format="2">
  <advance width="600"/>
  <unicode hex="0371"/>
  <anchor x="300" y="0" name="bottom"/>
  <anchor x="300" y="527" name="top"/>
  <outline>
    <contour>
      <point x="524" y="232" type="line"/>
      <point x="524" y="310" type="line"/>
      <point x="196" y="310" type="line"/>
      <point x="196" y="232" type="line"/>
    </contour>
    <contour>
      <point x="191" y="539" type="curve"/>
      <point x="107" y="527" type="line"/>
      <point x="121" y="483"/>
      <point x="133" y="434"/>
      <point x="133" y="357" type="curve" smooth="yes"/>
      <point x="133" y="0" type="line"/>
      <point x="225" y="0" type="line"/>
      <point x="225" y="339" type="line" smooth="yes"/>
      <point x="225" y="451"/>
      <point x="208" y="503"/>
    </contour>
  </outline>
</glyph>
<glyph name="Archaicsampi" format="2">
  <advance width="600"/>
  <unicode hex="0372"/>
  <anchor x="300" y="0" name="bottom"/>
  <anchor x="300" y="689" name="top"/>
  <outline>
    <contour>
      <point x="253" y="0" type="line"/>
      <point x="348" y="0" type="line"/>
      <point x="348" y="608" type="line"/>
      <point x="567" y="608" type="line"/>
      <point x="567" y="689" type="line"/>
      <point x="34" y="689" type="line"/>
      <point x="34" y="608" type="line"/>
      <point x="253" y="608" type="line"/>
    </contour>
    <contour>
      <point x="34" y="420" type="line"/>
      <point x="115" y="420" type="line"/>
      <point x="115" y="637" type="line"/>
      <point x="34" y="637" type="line"/>
    </contour>
    <contour>
      <point x="486" y="421" type="line"/>
      <point x="567" y="421" type="line"/>
      <point x="567" y="638" type="line"/>
      <point x="486" y="638" type="line"/>
    </contour>
  </outline>
</glyph>
<glyph name="archaicsampi" format="2">
  <advance width="600"/>
  <unicode hex="0373"/>
  <anchor x="300" y="-202" name="bottom"/>
  <anchor x="300" y="527" name="top"/>
  <outline>
    <contour>
      <point x="346" y="484" type="line"/>
      <point x="254" y="484" type="line"/>
      <point x="254" y="-213" type="line"/>
      <point x="346" y="-202" type="line"/>
    </contour>
    <contour>
      <point x="34" y="440" type="line"/>
      <point x="67" y="449"/>
      <point x="80" y="451"/>
      <point x="123" y="451" type="curve" smooth="yes"/>
      <point x="568" y="452" type="line"/>
      <point x="568" y="527" type="line"/>
      <point x="125" y="527" type="line" smooth="yes"/>
      <point x="76" y="527"/>
      <point x="54" y="525"/>
      <point x="18" y="512" type="curve"/>
    </contour>
  </outline>
</glyph>
<glyph name="pamphyliandigamma" format="2">
  <advance width="600"/>
  <unicode hex="0377"/>
  <anchor x="300" y="0" name="bottom"/>
  <anchor x="300" y="527" name="top"/>
  <outline>
    <contour>
      <point x="92" y="0" type="line"/>
      <point x="201" y="0" type="line"/>
      <point x="422" y="423" type="line"/>
      <point x="496" y="527" type="line"/>
      <point x="391" y="527" type="line"/>
      <point x="173" y="107" type="line"/>
      <point x="175" y="120"/>
      <point x="183" y="207"/>
      <point x="183" y="289" type="curve" smooth="yes"/>
      <point x="183" y="527" type="line"/>
      <point x="92" y="527" type="line"/>
    </contour>
    <contour>
      <point x="511" y="-12" type="curve"/>
      <point x="542" y="57" type="line"/>
      <point x="509" y="72"/>
      <point x="496" y="89"/>
      <point x="496" y="141" type="curve" smooth="yes"/>
      <point x="496" y="527" type="line"/>
      <point x="422" y="423" type="line"/>
      <point x="418" y="388"/>
      <point x="402" y="203"/>
      <point x="402" y="144" type="curve" smooth="yes"/>
      <point x="402" y="56"/>
      <point x="432" y="9"/>
    </contour>
  </outline>
</glyph>
<glyph name="tonos" format="2">
  <advance width="600"/>
  <unicode hex="0384"/>
  <anchor x="266" y="527" name="_top"/>
  <outline>
    <contour>
      <point x="271" y="812" type="line"/>
      <point x="234" y="606" type="line"/>
      <point x="299" y="595" type="line"/>
      <point x="367" y="794" type="line"/>
    </contour>
  </outline>
</glyph>
<glyph name="Delta" format="2">
  <advance width="600"/>
  <unicode hex="0394"/>
  <anchor x="300" y="0" name="bottom"/>
  <anchor x="300" y="689" name="top"/>
  <outline>
    <contour>
      <point x="360" y="689" type="line"/>
      <point x="240" y="689" type="line"/>
      <point x="17" y="0" type="line"/>
      <point x="583" y="0" type="line"/>
    </contour>
    <contour>
      <point x="298" y="609" type="line"/>
      <point x="459" y="78" type="line"/>
      <point x="136" y="78" type="line"/>
    </contour>
  </outline>
</glyph>
<glyph name="Xi" format="2">
  <advance width="600"/>
  <unicode hex="039E"/>
  <anchor x="300" y="0" name="bottom"/>
  <anchor x="300" y="689" name="top"/>
  <outline>
    <contour>
      <point x="526" y="87" type="line"/>
      <point x="74" y="87" type="line"/>
      <point x="74" y="0" type="line"/>
      <point x="526" y="0" type="line"/>
    </contour>
    <contour>
      <point x="466" y="392" type="line"/>
      <point x="125" y="392" type="line"/>
      <point x="125" y="307" type="line"/>
      <point x="466" y="307" type="line"/>
    </contour>
    <contour>
      <point x="517" y="689" type="line"/>
      <point x="74" y="689" type="line"/>
      <point x="74" y="604" type="line"/>
      <point x="504" y="604" type="line"/>
    </contour>
  </outline>
</glyph>
<glyph name="Phi" format="2">
  <advance width="600"/>
  <unicode hex="03A6"/>
  <anchor x="300" y="0" name="bottom"/>
  <anchor x="300" y="689" name="top"/>
  <outline>
    <contour>
      <point x="344" y="689" type="line"/>
      <point x="256" y="689" type="line"/>
      <point x="256" y="610" type="line"/>
      <point x="88" y="602"/>
      <point x="10" y="513"/>
      <point x="10" y="347" type="curve" smooth="yes"/>
      <point x="10" y="175"/>
      <point x="97" y="86"/>
      <point x="256" y="81" type="curve"/>
      <point x="256" y="0" type="line"/>
      <point x="344" y="0" type="line"/>
      <point x="344" y="81" type="line"/>
      <point x="503" y="86"/>
      <point x="590" y="175"/>
      <point x="590" y="347" type="curve" smooth="yes"/>
      <point x="590" y="514"/>
      <point x="511" y="602"/>
      <point x="344" y="610" type="curve"/>
    </contour>
    <contour>
      <point x="258" y="543" type="curve"/>
      <point x="258" y="148" type="line"/>
      <point x="149" y="154"/>
      <point x="104" y="212"/>
      <point x="104" y="347" type="curve" smooth="yes"/>
      <point x="104" y="491"/>
      <point x="153" y="541"/>
    </contour>
    <contour>
      <point x="342" y="543" type="line"/>
      <point x="446" y="542"/>
      <point x="496" y="492"/>
      <point x="496" y="347" type="curve" smooth="yes"/>
      <point x="496" y="213"/>
      <point x="451" y="154"/>
      <point x="342" y="148" type="curve"/>
    </contour>
  </outline>
</glyph>
<glyph name="nu" format="2">
  <advance width="600"/>
  <unicode hex="03BD"/>
  <anchor x="300" y="0" name="bottom"/>
  <anchor x="300" y="527" name="top"/>
  <outline>
    <contour>
      <point x="233" y="0" type="curve"/>
      <point x="344" y="0" type="line"/>
      <point x="550" y="518" type="line"/>
      <point x="458" y="539" type="line"/>
      <point x="295" y="79" type="line"/>
      <point x="255" y="269"/>
      <point x="197" y="450"/>
      <point x="121" y="538" type="curve"/>
      <point x="30" y="505" type="line"/>
      <point x="113" y="430"/>
      <point x="189" y="191"/>
    </contour>
  </outline>
</glyph>
<glyph name="chi" format="2">
  <advance width="600"/>
  <unicode hex="03C7"/>
  <anchor x="300" y="-202" name="bottom"/>
  <anchor x="300" y="527" name="top"/>
  <outline>
    <contour>
      <point x="140" y="538" type="curve"/>
      <point x="50" y="505" type="line"/>
      <point x="124" y="430"/>
      <point x="170" y="368"/>
      <point x="252" y="182" type="curve"/>
      <point x="306" y="118" type="line"/>
      <point x="461" y="-213" type="line"/>
      <point x="556" y="-202" type="line"/>
      <point x="360" y="186" type="line"/>
      <point x="307" y="242" type="line"/>
      <point x="249" y="397"/>
      <point x="202" y="473"/>
    </contour>
    <contour>
      <point x="442" y="535" type="line" smooth="yes"/>
      <point x="307" y="242" type="line"/>
      <point x="252" y="182" type="line"/>
      <point x="54" y="-202" type="line"/>
      <point x="148" y="-211" type="line"/>
      <point x="306" y="118" type="line"/>
      <point x="360" y="186" type="line"/>
      <point x="537" y="527" type="line"/>
    </contour>
  </outline>
</glyph>
<glyph name="KaiSymbol" format="2">
  <advance width="600"/>
  <unicode hex="03CF"/>
  <anchor x="300" y="-202" name="bottom"/>
  <outline>
    <contour>
      <point x="459" y="78" type="line"/>
      <point x="459" y="0" type="line"/>
      <point x="575" y="0" type="line"/>
      <point x="575" y="78" type="line"/>
    </contour>
    <contour>
      <point x="190" y="0" type="line"/>
      <point x="190" y="689" type="line"/>
      <point x="95" y="689" type="line"/>
      <point x="95" y="0" type="line"/>
    </contour>
    <contour>
      <point x="195" y="368" type="line"/>
      <point x="447" y="0" type="line"/>
      <point x="564" y="0" type="line"/>
      <point x="304" y="374" type="line"/>
      <point x="545" y="689" type="line"/>
      <point x="435" y="689" type="line"/>
    </contour>
    <component base="hookHELPER.case" xOffset="279"/>
  </outline>
</glyph>
<glyph name="UpsilonhookSymbol" format="2">
  <advance width="600"/>
  <unicode hex="03D2"/>
  <anchor x="303" y="689" name="top"/>
  <anchor x="20" y="689" name="topleft"/>
  <outline>
    <contour>
      <point x="576" y="621" type="curve"/>
      <point x="596" y="690" type="line"/>
      <point x="580" y="697"/>
      <point x="562" y="701"/>
      <point x="539" y="701" type="curve" smooth="yes"/>
      <point x="473" y="701"/>
      <point x="439" y="675"/>
      <point x="401" y="587" type="curve" smooth="yes"/>
      <point x="298" y="348" type="line"/>
      <point x="140" y="689" type="line"/>
      <point x="35" y="689" type="line"/>
      <point x="247" y="264" type="line"/>
      <point x="247" y="0" type="line"/>
      <point x="343" y="0" type="line"/>
      <point x="343" y="265" type="line"/>
      <point x="485" y="570" type="line" smooth="yes"/>
      <point x="504" y="611"/>
      <point x="521" y="625"/>
      <point x="547" y="625" type="curve" smooth="yes"/>
      <point x="559" y="625"/>
      <point x="568" y="623"/>
    </contour>
  </outline>
</glyph>
<glyph name="KoppaArchaic" format="2">
  <advance width="600"/>
  <unicode hex="03D8"/>
  <anchor x="300" y="-202" name="bottom"/>
  <anchor x="300" y="689" name="top"/>
  <anchor x="104" y="689" name="topleft"/>
  <outline>
    <contour>
      <point x="254" y="-202" type="line"/>
      <point x="347" y="-202" type="line"/>
      <point x="347" y="0" type="line"/>
      <point x="254" y="0" type="line"/>
    </contour>
    <component base="O"/>
  </outline>
</glyph>
<glyph name="koppaArchaic" format="2">
  <advance width="600"/>
  <unicode hex="03D9"/>
  <anchor x="300" y="-202" name="bottom"/>
  <anchor x="300" y="527" name="top"/>
  <outline>
    <contour>
      <point x="346" y="0" type="line"/>
      <point x="254" y="0" type="line"/>
      <point x="254" y="-213" type="line"/>
      <point x="346" y="-202" type="line"/>
    </contour>
    <component base="o"/>
  </outline>
</glyph>
<glyph name="Sampi" format="2">
  <advance width="600"/>
  <unicode hex="03E0"/>
  <anchor x="300" y="0" name="bottom"/>
  <anchor x="300" y="689" name="top"/>
  <outline>
    <contour>
      <point x="482" y="0" type="line"/>
      <point x="577" y="0" type="line"/>
      <point x="313" y="689" type="line"/>
      <point x="225" y="689" type="line"/>
      <point x="286" y="542" type="line"/>
    </contour>
    <contour>
      <point x="23" y="0" type="line"/>
      <point x="119" y="0" type="line"/>
      <point x="341" y="605" type="line"/>
      <point x="270" y="621" type="line"/>
    </contour>
    <contour>
      <point x="208" y="2" type="line"/>
      <point x="293" y="0" type="line"/>
      <point x="417" y="396" type="line"/>
      <point x="351" y="415" type="line"/>
    </contour>
  </outline>
</glyph>
<glyph name="sampi" format="2">
  <advance width="600"/>
  <unicode hex="03E1"/>
  <anchor x="300" y="-202" name="bottom"/>
  <anchor x="300" y="739" name="top"/>
  <outline>
    <contour>
      <point x="29" y="0" type="line"/>
      <point x="120" y="0" type="line"/>
      <point x="364" y="508" type="line"/>
      <point x="307" y="572" type="line" smooth="yes"/>
    </contour>
    <contour>
      <point x="234" y="0" type="line"/>
      <point x="314" y="0" type="line"/>
      <point x="454" y="333" type="line"/>
      <point x="401" y="387" type="line"/>
    </contour>
    <contour>
      <point x="96" y="752" type="curve"/>
      <point x="64" y="689" type="line"/>
      <point x="317" y="548"/>
      <point x="426" y="381"/>
      <point x="426" y="98" type="curve" smooth="yes"/>
      <point x="426" y="-18"/>
      <point x="413" y="-119"/>
      <point x="395" y="-201" type="curve"/>
      <point x="476" y="-212" type="line"/>
      <point x="498" y="-132"/>
      <point x="517" y="-8"/>
      <point x="517" y="98" type="curve" smooth="yes"/>
      <point x="517" y="422"/>
      <point x="378" y="615"/>
    </contour>
  </outline>
</glyph>
<glyph name="kappaSymbol" format="2">
  <advance width="600"/>
  <unicode hex="03F0"/>
  <anchor x="300" y="0" name="bottom"/>
  <anchor x="300" y="527" name="top"/>
  <outline>
    <contour>
      <point x="205" y="-8" type="line"/>
      <point x="423" y="423" type="line"/>
      <point x="494" y="505" type="line"/>
      <point x="395" y="535" type="line"/>
      <point x="177" y="104" type="line"/>
      <point x="106" y="22" type="line"/>
    </contour>
    <contour>
      <point x="509" y="-12" type="curve"/>
      <point x="540" y="57" type="line"/>
      <point x="507" y="72"/>
      <point x="494" y="89"/>
      <point x="494" y="141" type="curve" smooth="yes"/>
      <point x="494" y="505" type="line"/>
      <point x="423" y="423" type="line"/>
      <point x="419" y="388"/>
      <point x="400" y="203"/>
      <point x="400" y="144" type="curve" smooth="yes"/>
      <point x="400" y="56"/>
      <point x="430" y="9"/>
    </contour>
    <contour>
      <point x="91" y="539" type="curve"/>
      <point x="60" y="470" type="line"/>
      <point x="93" y="455"/>
      <point x="106" y="438"/>
      <point x="106" y="386" type="curve" smooth="yes"/>
      <point x="106" y="22" type="line"/>
      <point x="177" y="104" type="line"/>
      <point x="181" y="139"/>
      <point x="200" y="324"/>
      <point x="200" y="383" type="curve" smooth="yes"/>
      <point x="200" y="471"/>
      <point x="170" y="518"/>
    </contour>
  </outline>
</glyph>
<glyph name="sigmaLunateSymbol" format="2">
  <advance width="600"/>
  <unicode hex="03F2"/>
  <anchor x="300" y="0" name="bottom"/>
  <anchor x="352" y="266" name="center"/>
  <anchor x="300" y="527" name="top"/>
  <outline>
    <contour>
      <point x="340" y="66" type="curve" smooth="yes"/>
      <point x="252" y="66"/>
      <point x="188" y="123"/>
      <point x="188" y="261" type="curve" smooth="yes"/>
      <point x="188" y="398"/>
      <point x="251" y="463"/>
      <point x="340" y="463" type="curve" smooth="yes"/>
      <point x="386" y="463"/>
      <point x="430" y="447"/>
      <point x="474" y="417" type="curve"/>
      <point x="518" y="477" type="line"/>
      <point x="468" y="518"/>
      <point x="409" y="539"/>
      <point x="340" y="539" type="curve" smooth="yes"/>
      <point x="181" y="539"/>
      <point x="89" y="420"/>
      <point x="89" y="261" type="curve" smooth="yes"/>
      <point x="89" y="96"/>
      <point x="180" y="-12"/>
      <point x="339" y="-12" type="curve" smooth="yes"/>
      <point x="403" y="-12"/>
      <point x="473" y="13"/>
      <point x="519" y="52" type="curve"/>
      <point x="475" y="112" type="line"/>
      <point x="436" y="85"/>
      <point x="392" y="66"/>
    </contour>
  </outline>
</glyph>
<glyph name="rhoStrokeSymbol" format="2">
  <advance width="600"/>
  <unicode hex="03FC"/>
  <anchor x="331" y="-202" name="bottom"/>
  <anchor x="338" y="527" name="top"/>
  <outline>
    <contour>
      <point x="43" y="-64" type="line"/>
      <point x="43" y="-134" type="line"/>
      <point x="122" y="-134" type="line"/>
      <point x="372" y="-134" type="line"/>
      <point x="372" y="-64" type="line"/>
    </contour>
    <component base="rho" xOffset="31"/>
  </outline>
</glyph>
<glyph name="Be-cy" format="2">
  <advance width="600"/>
  <unicode hex="0411"/>
  <anchor x="300" y="0" name="bottom"/>
  <anchor x="300" y="689" name="top"/>
  <outline>
    <contour>
      <point x="486" y="689" type="line"/>
      <point x="96" y="689" type="line"/>
      <point x="96" y="0" type="line"/>
      <point x="278" y="0" type="line" smooth="yes"/>
      <point x="434" y="0"/>
      <point x="545" y="59"/>
      <point x="545" y="216" type="curve" smooth="yes"/>
      <point x="545" y="361"/>
      <point x="443" y="423"/>
      <point x="276" y="423" type="curve" smooth="yes"/>
      <point x="191" y="423" type="line"/>
      <point x="191" y="611" type="line"/>
      <point x="477" y="611" type="line"/>
    </contour>
    <contour>
      <point x="286" y="349" type="line" smooth="yes"/>
      <point x="380" y="349"/>
      <point x="446" y="313"/>
      <point x="446" y="215" type="curve" smooth="yes"/>
      <point x="446" y="103"/>
      <point x="379" y="76"/>
      <point x="286" y="76" type="curve" smooth="yes"/>
      <point x="191" y="76" type="line"/>
      <point x="191" y="349" type="line"/>
    </contour>
  </outline>
</glyph>
<glyph name="Ge-cy" format="2">
  <advance width="600"/>
  <unicode hex="0413"/>
  <anchor x="179" y="0" name="bottom"/>
  <anchor x="236" y="0" name="bottomright"/>
  <anchor x="347" y="689" name="top"/>
  <outline>
    <contour>
      <point x="546" y="689" type="line"/>
      <point x="131" y="689" type="line"/>
      <point x="131" y="0" type="line"/>
      <point x="226" y="0" type="line"/>
      <point x="226" y="607" type="line"/>
      <point x="536" y="607" type="line"/>
    </contour>
  </outline>
</glyph>
<glyph name="De-cy" format="2">
  <advance width="600"/>
  <unicode hex="0414"/>
  <anchor x="521" y="0" name="_bottom"/>
  <anchor x="300" y="-202" name="bottom"/>
  <anchor x="300" y="689" name="top"/>
  <outline>
    <contour>
      <point x="515" y="689" type="line"/>
      <point x="165" y="689" type="line"/>
      <point x="140" y="489" type="line" smooth="yes"/>
      <point x="103" y="201"/>
      <point x="95" y="131"/>
      <point x="41" y="78" type="curve"/>
      <point x="89" y="0" type="line"/>
      <point x="476" y="0" type="line"/>
      <point x="515" y="78" type="line"/>
    </contour>
    <contour>
      <point x="420" y="611" type="line"/>
      <point x="420" y="78" type="line"/>
      <point x="130" y="78" type="line"/>
      <point x="191" y="133"/>
      <point x="203" y="213"/>
      <point x="234" y="485" type="curve" smooth="yes"/>
      <point x="248" y="611" type="line"/>
    </contour>
    <component base="descStraight-cy.case" xOffset="207"/>
    <component base="descStraight-cy.case" xScale="-1" xOffset="358"/>
  </outline>
</glyph>
<glyph name="Ka-cy" format="2">
  <advance width="600"/>
  <unicode hex="041A"/>
  <anchor x="300" y="0" name="bottom"/>
  <anchor x="539" y="0" name="bottomright"/>
  <anchor x="320" y="689" name="top"/>
  <outline>
    <contour>
      <point x="263" y="323" type="line"/>
      <point x="476" y="0" type="line"/>
      <point x="589" y="0" type="line"/>
      <point x="344" y="366" type="line"/>
      <point x="570" y="689" type="line"/>
      <point x="469" y="689" type="line"/>
      <point x="264" y="401" type="line"/>
      <point x="185" y="401" type="line"/>
      <point x="185" y="689" type="line"/>
      <point x="90" y="689" type="line"/>
      <point x="90" y="0" type="line"/>
      <point x="185" y="0" type="line"/>
      <point x="185" y="323" type="line"/>
    </contour>
  </outline>
</glyph>
<glyph name="El-cy" format="2">
  <advance width="600"/>
  <unicode hex="041B"/>
  <anchor x="300" y="0" name="bottom"/>
  <anchor x="530" y="0" name="bottomright"/>
  <anchor x="300" y="689" name="top"/>
  <outline>
    <contour>
      <point x="520" y="689" type="line"/>
      <point x="165" y="689" type="line"/>
      <point x="128" y="395" type="line" smooth="yes"/>
      <point x="94" y="126"/>
      <point x="59" y="96"/>
      <point x="12" y="57" type="curve"/>
      <point x="53" y="-12" type="line"/>
      <point x="148" y="50"/>
      <point x="187" y="95"/>
      <point x="225" y="415" type="curve" smooth="yes"/>
      <point x="248" y="609" type="line"/>
      <point x="425" y="609" type="line"/>
      <point x="425" y="0" type="line"/>
      <point x="520" y="0" type="line"/>
    </contour>
  </outline>
</glyph>
<glyph name="Pe-cy" format="2">
  <advance width="600"/>
  <unicode hex="041F"/>
  <anchor x="300" y="0" name="bottom"/>
  <anchor x="530" y="0" name="bottomright"/>
  <anchor x="300" y="689" name="top"/>
  <outline>
    <contour>
      <point x="425" y="0" type="line"/>
      <point x="520" y="0" type="line"/>
      <point x="520" y="689" type="line"/>
      <point x="80" y="689" type="line"/>
      <point x="80" y="0" type="line"/>
      <point x="175" y="0" type="line"/>
      <point x="175" y="608" type="line"/>
      <point x="425" y="608" type="line"/>
    </contour>
  </outline>
</glyph>
<glyph name="Che-cy" format="2">
  <advance width="600"/>
  <unicode hex="0427"/>
  <anchor x="300" y="0" name="bottom"/>
  <anchor x="415" y="0" name="bottomleft"/>
  <anchor x="530" y="0" name="bottomright"/>
  <anchor x="289" y="689" name="top"/>
  <outline>
    <contour>
      <point x="143" y="689" type="line"/>
      <point x="48" y="689" type="line"/>
      <point x="48" y="424" type="line" smooth="yes"/>
      <point x="48" y="297"/>
      <point x="128" y="217"/>
      <point x="250" y="217" type="curve" smooth="yes"/>
      <point x="329" y="217"/>
      <point x="378" y="240"/>
      <point x="444" y="292" type="curve"/>
      <point x="434" y="365" type="line"/>
      <point x="401" y="329"/>
      <point x="351" y="298"/>
      <point x="274" y="298" type="curve" smooth="yes"/>
      <point x="190" y="298"/>
      <point x="143" y="339"/>
      <point x="143" y="431" type="curve" smooth="yes"/>
    </contour>
    <contour>
      <point x="520" y="689" type="line"/>
      <point x="425" y="689" type="line"/>
      <point x="425" y="0" type="line"/>
      <point x="520" y="0" type="line"/>
    </contour>
  </outline>
</glyph>
<glyph name="Sha-cy" format="2">
  <advance width="600"/>
  <unicode hex="0428"/>
  <anchor x="300" y="0" name="bottom"/>
  <anchor x="565" y="0" name="bottomright"/>
  <anchor x="300" y="689" name="top"/>
  <outline>
    <contour>
      <point x="555" y="689" type="line"/>
      <point x="468" y="689" type="line"/>
      <point x="468" y="77" type="line"/>
      <point x="341" y="77" type="line"/>
      <point x="341" y="689" type="line"/>
      <point x="259" y="689" type="line"/>
      <point x="259" y="77" type="line"/>
      <point x="132" y="77" type="line"/>
      <point x="132" y="689" type="line"/>
      <point x="45" y="689" type="line"/>
      <point x="45" y="0" type="line"/>
      <point x="555" y="0" type="line"/>
    </contour>
  </outline>
</glyph>
<glyph name="ge-cy" format="2">
  <advance width="600"/>
  <unicode hex="0433"/>
  <anchor x="200" y="0" name="bottom"/>
  <anchor x="256" y="0" name="bottomright"/>
  <anchor x="340" y="527" name="top"/>
  <outline>
    <contour>
      <point x="246" y="0" type="line"/>
      <point x="246" y="451" type="line"/>
      <point x="515" y="451" type="line"/>
      <point x="526" y="527" type="line"/>
      <point x="154" y="527" type="line"/>
      <point x="154" y="0" type="line"/>
    </contour>
  </outline>
</glyph>
<glyph name="ii-cy" format="2">
  <advance width="600"/>
  <unicode hex="0438"/>
  <anchor x="300" y="0" name="bottom"/>
  <anchor x="493" y="0" name="bottomright"/>
  <anchor x="300" y="527" name="top"/>
  <outline>
    <contour>
      <point x="503" y="527" type="line"/>
      <point x="392" y="527" type="line"/>
      <point x="178" y="107" type="line"/>
      <point x="180" y="120"/>
      <point x="188" y="207"/>
      <point x="188" y="289" type="curve" smooth="yes"/>
      <point x="188" y="527" type="line"/>
      <point x="97" y="527" type="line"/>
      <point x="97" y="0" type="line"/>
      <point x="206" y="0" type="line"/>
      <point x="423" y="423" type="line"/>
      <point x="421" y="411"/>
      <point x="412" y="331"/>
      <point x="412" y="238" type="curve" smooth="yes"/>
      <point x="412" y="0" type="line"/>
      <point x="503" y="0" type="line"/>
    </contour>
  </outline>
</glyph>
<glyph name="ka-cy" format="2">
  <advance width="600"/>
  <unicode hex="043A"/>
  <anchor x="300" y="0" name="bottom"/>
  <anchor x="518" y="0" name="bottomright"/>
  <anchor x="320" y="527" name="top"/>
  <outline>
    <contour>
      <point x="102" y="0" type="line"/>
      <point x="194" y="0" type="line"/>
      <point x="194" y="243" type="line"/>
      <point x="294" y="243" type="line"/>
      <point x="462" y="0" type="line"/>
      <point x="571" y="0" type="line"/>
      <point x="371" y="283" type="line"/>
      <point x="545" y="527" type="line"/>
      <point x="444" y="527" type="line"/>
      <point x="296" y="315" type="line"/>
      <point x="194" y="315" type="line"/>
      <point x="194" y="527" type="line"/>
      <point x="102" y="527" type="line"/>
    </contour>
  </outline>
</glyph>
<glyph name="em-cy" format="2">
  <advance width="600"/>
  <unicode hex="043C"/>
  <anchor x="300" y="0" name="bottom"/>
  <anchor x="570" y="0" name="bottomright"/>
  <anchor x="300" y="527" name="top"/>
  <outline>
    <contour>
      <point x="522" y="527" type="line"/>
      <point x="403" y="527" type="line"/>
      <point x="303" y="171" type="line"/>
      <point x="194" y="527" type="line"/>
      <point x="77" y="527" type="line"/>
      <point x="40" y="0" type="line"/>
      <point x="126" y="0" type="line"/>
      <point x="140" y="250" type="line" smooth="yes"/>
      <point x="143" y="308"/>
      <point x="145" y="378"/>
      <point x="142" y="437" type="curve"/>
      <point x="146" y="437" type="line"/>
      <point x="258" y="88" type="line"/>
      <point x="345" y="88" type="line"/>
      <point x="446" y="437" type="line"/>
      <point x="450" y="437" type="line"/>
      <point x="448" y="366"/>
      <point x="450" y="307"/>
      <point x="454" y="249" type="curve" smooth="yes"/>
      <point x="473" y="0" type="line"/>
      <point x="560" y="0" type="line"/>
    </contour>
  </outline>
</glyph>
<glyph name="en-cy" format="2">
  <advance width="600"/>
  <unicode hex="043D"/>
  <anchor x="513" y="0" name="bottomright"/>
  <outline>
    <contour>
      <point x="411" y="0" type="line"/>
      <point x="503" y="0" type="line"/>
      <point x="503" y="527" type="line"/>
      <point x="411" y="527" type="line"/>
      <point x="411" y="306" type="line"/>
      <point x="189" y="306" type="line"/>
      <point x="189" y="527" type="line"/>
      <point x="97" y="527" type="line"/>
      <point x="97" y="0" type="line"/>
      <point x="189" y="0" type="line"/>
      <point x="189" y="232" type="line"/>
      <point x="411" y="232" type="line"/>
    </contour>
  </outline>
</glyph>
<glyph name="pe-cy" format="2">
  <advance width="600"/>
  <unicode hex="043F"/>
  <anchor x="300" y="0" name="bottom"/>
  <anchor x="513" y="0" name="bottomright"/>
  <anchor x="300" y="527" name="top"/>
  <outline>
    <contour>
      <point x="411" y="0" type="line"/>
      <point x="503" y="0" type="line"/>
      <point x="503" y="527" type="line"/>
      <point x="97" y="527" type="line"/>
      <point x="97" y="0" type="line"/>
      <point x="189" y="0" type="line"/>
      <point x="189" y="453" type="line"/>
      <point x="411" y="453" type="line"/>
    </contour>
  </outline>
</glyph>
<glyph name="te-cy" format="2">
  <advance width="600"/>
  <unicode hex="0442"/>
  <anchor x="300" y="0" name="bottom"/>
  <anchor x="356" y="0" name="bottomright"/>
  <anchor x="300" y="527" name="top"/>
  <outline>
    <contour>
      <point x="543" y="527" type="line"/>
      <point x="63" y="527" type="line"/>
      <point x="63" y="452" type="line"/>
      <point x="254" y="452" type="line"/>
      <point x="254" y="0" type="line"/>
      <point x="346" y="0" type="line"/>
      <point x="346" y="452" type="line"/>
      <point x="532" y="452" type="line"/>
    </contour>
  </outline>
</glyph>
<glyph name="che-cy" format="2">
  <advance width="600"/>
  <unicode hex="0447"/>
  <anchor x="300" y="0" name="bottom"/>
  <anchor x="391" y="0" name="bottomleft"/>
  <anchor x="503" y="0" name="bottomright"/>
  <anchor x="287" y="527" name="top"/>
  <outline>
    <contour>
      <point x="493" y="527" type="line"/>
      <point x="401" y="527" type="line"/>
      <point x="401" y="291.409" type="line"/>
      <point x="369.526" y="256.098"/>
      <point x="310.853" y="234"/>
      <point x="262" y="234" type="curve" smooth="yes"/>
      <point x="202" y="234"/>
      <point x="173" y="261"/>
      <point x="173" y="329" type="curve" smooth="yes"/>
      <point x="173" y="527" type="line"/>
      <point x="81" y="527" type="line"/>
      <point x="81" y="318" type="line" smooth="yes"/>
      <point x="81" y="220"/>
      <point x="134" y="162"/>
      <point x="237" y="162" type="curve" smooth="yes"/>
      <point x="302.227" y="162"/>
      <point x="361.545" y="184.788"/>
      <point x="401" y="220.283" type="curve"/>
      <point x="401" y="0" type="line"/>
      <point x="493" y="0" type="line"/>
    </contour>
  </outline>
</glyph>
<glyph name="sha-cy" format="2">
  <advance width="600"/>
  <unicode hex="0448"/>
  <anchor x="300" y="0" name="bottom"/>
  <anchor x="553" y="0" name="bottomright"/>
  <anchor x="300" y="527" name="top"/>
  <outline>
    <contour>
      <point x="554" y="527" type="line"/>
      <point x="469" y="527" type="line"/>
      <point x="469" y="75" type="line"/>
      <point x="341" y="75" type="line"/>
      <point x="341" y="527" type="line"/>
      <point x="259" y="527" type="line"/>
      <point x="259" y="75" type="line"/>
      <point x="131" y="75" type="line"/>
      <point x="131" y="527" type="line"/>
      <point x="46" y="527" type="line"/>
      <point x="46" y="0" type="line"/>
      <point x="554" y="0" type="line"/>
    </contour>
  </outline>
</glyph>
<glyph name="softsign-cy" format="2">
  <advance width="600"/>
  <unicode hex="044C"/>
  <anchor x="300" y="0" name="bottom"/>
  <anchor x="300" y="527" name="top"/>
  <outline>
    <contour>
      <point x="214" y="527" type="line"/>
      <point x="122" y="527" type="line"/>
      <point x="122" y="0" type="line"/>
      <point x="329" y="0" type="line" smooth="yes"/>
      <point x="436" y="0"/>
      <point x="536" y="54"/>
      <point x="536" y="182" type="curve" smooth="yes"/>
      <point x="536" y="292"/>
      <point x="477" y="362"/>
      <point x="312" y="362" type="curve" smooth="yes"/>
      <point x="214" y="362" type="line"/>
    </contour>
    <contour>
      <point x="311" y="292" type="line" smooth="yes"/>
      <point x="408" y="292"/>
      <point x="438" y="255"/>
      <point x="438" y="182" type="curve" smooth="yes"/>
      <point x="438" y="98"/>
      <point x="390" y="72"/>
      <point x="321" y="72" type="curve" smooth="yes"/>
      <point x="214" y="72" type="line"/>
      <point x="214" y="292" type="line"/>
    </contour>
  </outline>
</glyph>
<glyph name="yat-cy" format="2">
  <advance width="600"/>
  <unicode hex="0463"/>
  <anchor x="300" y="0" name="bottom"/>
  <anchor x="186" y="652" name="top"/>
  <outline>
    <contour>
      <point x="232" y="657" type="line"/>
      <point x="140" y="646" type="line"/>
      <point x="140" y="537" type="line"/>
      <point x="56" y="537" type="line"/>
      <point x="56" y="467" type="line"/>
      <point x="140" y="467" type="line"/>
      <point x="140" y="0" type="line"/>
      <point x="302" y="0" type="line" smooth="yes"/>
      <point x="442" y="0"/>
      <point x="542" y="47"/>
      <point x="542" y="181" type="curve" smooth="yes"/>
      <point x="542" y="306"/>
      <point x="450" y="357"/>
      <point x="300" y="357" type="curve" smooth="yes"/>
      <point x="232" y="357" type="line"/>
      <point x="232" y="467" type="line"/>
      <point x="354" y="467" type="line"/>
      <point x="365" y="537" type="line"/>
      <point x="232" y="537" type="line"/>
    </contour>
    <contour>
      <point x="309" y="287" type="line" smooth="yes"/>
      <point x="394" y="287"/>
      <point x="444" y="258"/>
      <point x="444" y="181" type="curve" smooth="yes"/>
      <point x="444" y="92"/>
      <point x="386" y="72"/>
      <point x="309" y="72" type="curve" smooth="yes"/>
      <point x="232" y="72" type="line"/>
      <point x="232" y="287" type="line"/>
    </contour>
  </outline>
</glyph>
<glyph name="Yuslittleiotified-cy" format="2">
  <advance width="600"/>
  <unicode hex="0468"/>
  <anchor x="300" y="0" name="bottom"/>
  <anchor x="300" y="689" name="top"/>
  <outline>
    <contour>
      <point x="241" y="288" type="line"/>
      <point x="241" y="360" type="line"/>
      <point x="123" y="360" type="line"/>
      <point x="123" y="689" type="line"/>
      <point x="33" y="689" type="line"/>
      <point x="33" y="0" type="line"/>
      <point x="123" y="0" type="line"/>
      <point x="123" y="288" type="line"/>
    </contour>
    <contour>
      <point x="156" y="0" type="line"/>
      <point x="242" y="0" type="line"/>
      <point x="377" y="621" type="line"/>
      <point x="512" y="0" type="line"/>
      <point x="602" y="0" type="line"/>
      <point x="439" y="689" type="line"/>
      <point x="319" y="689" type="line"/>
    </contour>
    <contour>
      <point x="339" y="0" type="line"/>
      <point x="415" y="0" type="line"/>
      <point x="415" y="306" type="line"/>
      <point x="339" y="306" type="line"/>
    </contour>
    <contour>
      <point x="232" y="288" type="line"/>
      <point x="523" y="288" type="line"/>
      <point x="500" y="360" type="line"/>
      <point x="255" y="360" type="line"/>
    </contour>
  </outline>
</glyph>
<glyph name="yuslittleiotified-cy" format="2">
  <advance width="600"/>
  <unicode hex="0469"/>
  <anchor x="300" y="0" name="bottom"/>
  <anchor x="300" y="527" name="top"/>
  <outline>
    <contour>
      <point x="347" y="0" type="line"/>
      <point x="418" y="0" type="line"/>
      <point x="418" y="243" type="line"/>
      <point x="347" y="243" type="line"/>
    </contour>
    <contour>
      <point x="48" y="0" type="line"/>
      <point x="135" y="0" type="line"/>
      <point x="135" y="202" type="line"/>
      <point x="508" y="202" type="line"/>
      <point x="508" y="274" type="line"/>
      <point x="135" y="274" type="line"/>
      <point x="135" y="527" type="line"/>
      <point x="48" y="527" type="line"/>
    </contour>
    <contour>
      <point x="174" y="0" type="line"/>
      <point x="256" y="0" type="line"/>
      <point x="384" y="460" type="line"/>
      <point x="512" y="0" type="line"/>
      <point x="597" y="0" type="line"/>
      <point x="441" y="527" type="line"/>
      <point x="331" y="527" type="line"/>
    </contour>
  </outline>
</glyph>
<glyph name="Yusbig-cy" format="2">
  <advance width="600"/>
  <unicode hex="046A"/>
  <anchor x="300" y="0" name="bottom"/>
  <anchor x="300" y="689" name="top"/>
  <outline>
    <contour>
      <point x="34" y="0" type="line"/>
      <point x="120" y="0" type="line"/>
      <point x="202" y="311" type="line"/>
      <point x="256" y="311" type="line"/>
      <point x="256" y="0" type="line"/>
      <point x="345" y="0" type="line"/>
      <point x="345" y="311" type="line"/>
      <point x="399" y="311" type="line"/>
      <point x="480" y="0" type="line"/>
      <point x="566" y="0" type="line"/>
      <point x="461" y="381" type="line"/>
      <point x="146" y="381" type="line"/>
    </contour>
    <contour>
      <point x="247" y="325" type="line"/>
      <point x="352" y="325" type="line"/>
      <point x="514" y="628" type="line"/>
      <point x="514" y="689" type="line"/>
      <point x="455" y="689" type="line"/>
      <point x="303" y="381" type="line"/>
      <point x="152" y="689" type="line"/>
      <point x="90" y="689" type="line"/>
      <point x="90" y="628" type="line"/>
    </contour>
    <contour>
      <point x="125" y="623" type="line"/>
      <point x="489" y="623" type="line"/>
      <point x="489" y="689" type="line"/>
      <point x="125" y="689" type="line"/>
    </contour>
  </outline>
</glyph>
<glyph name="izhitsa-cy" format="2">
  <advance width="600"/>
  <unicode hex="0475"/>
  <anchor x="300" y="0" name="bottom"/>
  <anchor x="299" y="527" name="top"/>
  <outline>
    <contour>
      <point x="235" y="0" type="line"/>
      <point x="346" y="0" type="line"/>
      <point x="494" y="456" type="line" smooth="yes"/>
      <point x="504" y="488"/>
      <point x="515" y="500"/>
      <point x="537" y="500" type="curve" smooth="yes"/>
      <point x="548" y="500"/>
      <point x="558" y="498"/>
      <point x="568" y="494" type="curve"/>
      <point x="595" y="556" type="line"/>
      <point x="572" y="567"/>
      <point x="549" y="574"/>
      <point x="525" y="574" type="curve" smooth="yes"/>
      <point x="460" y="574"/>
      <point x="433" y="542"/>
      <point x="409" y="464" type="curve" smooth="yes"/>
      <point x="291" y="82" type="line"/>
      <point x="153" y="527" type="line"/>
      <point x="53" y="527" type="line"/>
    </contour>
  </outline>
</glyph>
<glyph name="ertick-cy" format="2">
  <advance width="600"/>
  <unicode hex="048F"/>
  <anchor x="300" y="-202" name="bottom"/>
  <anchor x="300" y="527" name="top"/>
  <outline>
    <contour>
      <point x="249" y="219" type="line"/>
      <point x="439" y="-92" type="line"/>
      <point x="518" y="-92" type="line"/>
      <point x="328" y="219" type="line"/>
    </contour>
    <contour>
      <point x="339" y="539" type="curve" smooth="yes"/>
      <point x="277" y="539"/>
      <point x="222" y="509"/>
      <point x="183" y="455" type="curve"/>
      <point x="176" y="527" type="line"/>
      <point x="97" y="527" type="line"/>
      <point x="97" y="-213" type="line"/>
      <point x="189" y="-202" type="line"/>
      <point x="189" y="48" type="line"/>
      <point x="224" y="8"/>
      <point x="270" y="-12"/>
      <point x="327" y="-12" type="curve" smooth="yes"/>
      <point x="463" y="-12"/>
      <point x="530" y="104"/>
      <point x="530" y="264" type="curve" smooth="yes"/>
      <point x="530" y="430"/>
      <point x="479" y="539"/>
    </contour>
    <contour>
      <point x="316" y="466" type="curve" smooth="yes"/>
      <point x="395" y="466"/>
      <point x="432" y="401"/>
      <point x="432" y="264" type="curve" smooth="yes"/>
      <point x="432" y="106"/>
      <point x="399" y="63"/>
      <point x="305" y="63" type="curve" smooth="yes"/>
      <point x="257" y="63"/>
      <point x="216" y="87"/>
      <point x="189" y="127" type="curve"/>
      <point x="189" y="384" type="line"/>
      <point x="217" y="426"/>
      <point x="260" y="466"/>
    </contour>
  </outline>
</glyph>
<glyph name="Gheupturn-cy" format="2">
  <advance width="600"/>
  <unicode hex="0490"/>
  <anchor x="179" y="0" name="bottom"/>
  <anchor x="236" y="0" name="bottomright"/>
  <anchor x="347" y="689" name="top"/>
  <outline>
    <contour>
      <point x="546" y="836" type="line"/>
      <point x="454" y="836" type="line"/>
      <point x="454" y="679" type="line"/>
      <point x="546" y="689" type="line"/>
    </contour>
    <component base="Ge-cy"/>
  </outline>
</glyph>
<glyph name="Ghestroke-cy" format="2">
  <advance width="600"/>
  <unicode hex="0492"/>
  <anchor x="209" y="0" name="bottom"/>
  <anchor x="266" y="0" name="bottomright"/>
  <anchor x="377" y="689" name="top"/>
  <outline>
    <contour>
      <point x="412" y="433" type="line"/>
      <point x="161" y="433" type="line"/>
      <point x="63" y="433" type="line"/>
      <point x="63" y="363" type="line"/>
      <point x="256" y="363" type="line"/>
      <point x="412" y="363" type="line"/>
    </contour>
    <component base="Ge-cy" xOffset="30"/>
  </outline>
</glyph>
<glyph name="ghestroke-cy" format="2">
  <advance width="600"/>
  <unicode hex="0493"/>
  <anchor x="230" y="0" name="bottom"/>
  <anchor x="286" y="0" name="bottomright"/>
  <anchor x="370" y="527" name="top"/>
  <outline>
    <contour>
      <point x="400" y="303" type="line"/>
      <point x="184" y="303" type="line"/>
      <point x="92" y="303" type="line"/>
      <point x="92" y="233" type="line"/>
      <point x="400" y="233" type="line"/>
    </contour>
    <component base="ge-cy" xOffset="30"/>
  </outline>
</glyph>
<glyph name="Ghemiddlehook-cy" format="2">
  <advance width="600"/>
  <unicode hex="0494"/>
  <anchor x="300" y="-202" name="bottom"/>
  <anchor x="561" y="0" name="bottomright"/>
  <anchor x="300" y="689" name="top"/>
  <outline>
    <contour>
      <point x="471" y="689" type="line"/>
      <point x="96" y="689" type="line"/>
      <point x="175" y="611" type="line"/>
      <point x="459" y="611" type="line"/>
    </contour>
    <component base="Shha-cy"/>
    <component base="hookHELPER.case" xOffset="255"/>
  </outline>
</glyph>
<glyph name="Zhedescender-cy" format="2">
  <advance width="600"/>
  <unicode hex="0496"/>
  <anchor x="300" y="0" name="bottom"/>
  <anchor x="560" y="0" name="bottomright"/>
  <anchor x="300" y="689" name="top"/>
  <outline>
    <contour>
      <point x="610" y="78" type="line"/>
      <point x="507" y="78" type="line"/>
      <point x="497" y="0" type="line"/>
      <point x="520" y="0" type="line"/>
      <point x="535" y="-150" type="line"/>
      <point x="610" y="-150" type="line"/>
    </contour>
    <component base="Zhe-cy"/>
    <component base="descStraight-cy.case" xScale="0" yScale="0" xOffset="560"/>
  </outline>
</glyph>
<glyph name="Kaverticalstroke-cy" format="2">
  <advance width="600"/>
  <unicode hex="049C"/>
  <anchor x="300" y="0" name="bottom"/>
  <anchor x="300" y="689" name="top"/>
  <outline>
    <contour>
      <point x="229" y="150" type="line"/>
      <point x="283" y="150" type="line"/>
      <point x="283" y="324" type="line"/>
      <point x="308" y="324" type="line"/>
      <point x="484" y="0" type="line"/>
      <point x="589" y="0" type="line"/>
      <point x="382" y="366" type="line"/>
      <point x="570" y="689" type="line"/>
      <point x="472" y="689" type="line"/>
      <point x="308" y="400" type="line"/>
      <point x="283" y="400" type="line"/>
      <point x="283" y="570" type="line"/>
      <point x="229" y="570" type="line"/>
      <point x="229" y="400" type="line"/>
      <point x="182" y="400" type="line"/>
      <point x="182" y="689" type="line"/>
      <point x="90" y="689" type="line"/>
      <point x="90" y="0" type="line"/>
      <point x="182" y="0" type="line"/>
      <point x="182" y="324" type="line"/>
      <point x="229" y="324" type="line"/>
    </contour>
  </outline>
</glyph>
<glyph name="ustrait-cy" format="2">
  <advance width="600"/>
  <unicode hex="04AF"/>
  <anchor x="300" y="-202" name="bottom"/>
  <anchor x="300" y="527" name="top"/>
  <outline>
    <contour>
      <point x="255" y="-213" type="line"/>
      <point x="345" y="-202" type="line"/>
      <point x="345" y="15" type="line"/>
      <point x="546" y="527" type="line"/>
      <point x="451" y="527" type="line"/>
      <point x="302" y="101" type="line"/>
      <point x="152" y="527" type="line"/>
      <point x="54" y="527" type="line"/>
      <point x="255" y="15" type="line"/>
    </contour>
  </outline>
</glyph>
<glyph name="Ustraitstroke-cy" format="2">
  <advance width="600"/>
  <unicode hex="04B0"/>
  <anchor x="300" y="0" name="bottom"/>
  <anchor x="303" y="689" name="top"/>
  <anchor x="20" y="689" name="topleft"/>
  <outline>
    <contour>
      <point x="475" y="316" type="line"/>
      <point x="223" y="316" type="line"/>
      <point x="125" y="316" type="line"/>
      <point x="125" y="246" type="line"/>
      <point x="348" y="246" type="line"/>
      <point x="475" y="246" type="line"/>
    </contour>
    <component base="Y"/>
  </outline>
</glyph>
<glyph name="ustraitstroke-cy" format="2">
  <advance width="600"/>
  <unicode hex="04B1"/>
  <anchor x="300" y="-202" name="bottom"/>
  <anchor x="300" y="527" name="top"/>
  <outline>
    <contour>
      <point x="449" y="72" type="line"/>
      <point x="151" y="72" type="line"/>
      <point x="151" y="2" type="line"/>
      <point x="345" y="2" type="line"/>
      <point x="449" y="2" type="line"/>
    </contour>
    <component base="ustrait-cy"/>
  </outline>
</glyph>
<glyph name="Tetse-cy" format="2">
  <advance width="600"/>
  <unicode hex="04B4"/>
  <anchor x="300" y="-202" name="bottom"/>
  <anchor x="300" y="689" name="top"/>
  <outline>
    <contour>
      <point x="344" y="689" type="line"/>
      <point x="0" y="689" type="line"/>
      <point x="0" y="614" type="line"/>
      <point x="124" y="614" type="line"/>
      <point x="219" y="614" type="line"/>
      <point x="334" y="614" type="line"/>
    </contour>
    <contour>
      <point x="564" y="78" type="line"/>
      <point x="461" y="78" type="line"/>
      <point x="451" y="0" type="line"/>
      <point x="474" y="0" type="line"/>
      <point x="489" y="-150" type="line"/>
      <point x="564" y="-150" type="line"/>
    </contour>
    <contour>
      <point x="124" y="0" type="line"/>
      <point x="514" y="0" type="line"/>
      <point x="514" y="689" type="line"/>
      <point x="419" y="689" type="line"/>
      <point x="419" y="78" type="line"/>
      <point x="219" y="78" type="line"/>
      <point x="219" y="689" type="line"/>
      <point x="124" y="689" type="line"/>
    </contour>
  </outline>
</glyph>
<glyph name="tetse-cy" format="2">
  <advance width="600"/>
  <unicode hex="04B5"/>
  <anchor x="300" y="-202" name="bottom"/>
  <anchor x="300" y="527" name="top"/>
  <outline>
    <contour>
      <point x="337" y="527" type="line"/>
      <point x="0" y="527" type="line"/>
      <point x="0" y="457" type="line"/>
      <point x="121" y="457" type="line"/>
      <point x="213" y="457" type="line"/>
      <point x="326" y="457" type="line"/>
    </contour>
    <contour>
      <point x="404" y="527" type="line"/>
      <point x="404" y="75" type="line"/>
      <point x="213" y="75" type="line"/>
      <point x="213" y="527" type="line"/>
      <point x="121" y="527" type="line"/>
      <point x="121" y="0" type="line"/>
      <point x="496" y="0" type="line"/>
      <point x="496" y="527" type="line"/>
    </contour>
    <contour>
      <point x="556" y="74" type="line"/>
      <point x="430" y="74" type="line"/>
      <point x="430" y="0" type="line"/>
      <point x="466" y="0" type="line"/>
      <point x="481" y="-150" type="line"/>
      <point x="556" y="-150" type="line"/>
    </contour>
  </outline>
</glyph>
<glyph name="Cheverticalstroke-cy" format="2">
  <advance width="600"/>
  <unicode hex="04B8"/>
  <anchor x="300" y="0" name="bottom"/>
  <anchor x="415" y="0" name="bottomleft"/>
  <anchor x="530" y="0" name="bottomright"/>
  <anchor x="289" y="689" name="top"/>
  <outline>
    <contour>
      <point x="319" y="540" type="line"/>
      <point x="260" y="540" type="line"/>
      <point x="260" y="299" type="line"/>
      <point x="260" y="120" type="line"/>
      <point x="319" y="120" type="line"/>
    </contour>
    <component base="Che-cy"/>
  </outline>
</glyph>
<glyph name="cheverticalstroke-cy" format="2">
  <advance width="600"/>
  <unicode hex="04B9"/>
  <anchor x="300" y="0" name="bottom"/>
  <anchor x="391" y="0" name="bottomleft"/>
  <anchor x="503" y="0" name="bottomright"/>
  <anchor x="287" y="527" name="top"/>
  <outline>
    <contour>
      <point x="306" y="390" type="line"/>
      <point x="251" y="390" type="line"/>
      <point x="251" y="90" type="line"/>
      <point x="306" y="90" type="line"/>
    </contour>
    <component base="che-cy"/>
  </outline>
</glyph>
<glyph name="kahook-cy" format="2">
  <advance width="600"/>
  <unicode hex="04C4"/>
  <anchor x="300" y="-202" name="bottom"/>
  <anchor x="300" y="527" name="top"/>
  <outline>
    <contour>
      <point x="103" y="0" type="line"/>
      <point x="195" y="0" type="line"/>
      <point x="195" y="230" type="line"/>
      <point x="302" y="230" type="line"/>
      <point x="332" y="270" type="line"/>
      <point x="498" y="527" type="line"/>
      <point x="401" y="527" type="line"/>
      <point x="262" y="302" type="line"/>
      <point x="195" y="302" type="line"/>
      <point x="195" y="527" type="line"/>
      <point x="103" y="527" type="line"/>
    </contour>
    <contour>
      <point x="402" y="0" type="line"/>
      <point x="494" y="0" type="line"/>
      <point x="494" y="137" type="line" smooth="yes"/>
      <point x="494" y="248"/>
      <point x="430" y="302"/>
      <point x="321" y="302" type="curve"/>
      <point x="299" y="230" type="line"/>
      <point x="373" y="230"/>
      <point x="402" y="204"/>
      <point x="402" y="128" type="curve" smooth="yes"/>
    </contour>
    <component base="hookHELPER" xOffset="198"/>
  </outline>
</glyph>
<glyph name="Entail-cy" format="2">
  <advance width="600"/>
  <unicode hex="04C9"/>
  <anchor x="524" y="0" name="_bottom"/>
  <outline>
    <contour>
      <point x="394" y="0" type="line"/>
      <point x="489" y="0" type="line"/>
      <point x="489" y="689" type="line"/>
      <point x="394" y="689" type="line"/>
      <point x="394" y="401" type="line"/>
      <point x="164" y="401" type="line"/>
      <point x="164" y="689" type="line"/>
      <point x="69" y="689" type="line"/>
      <point x="69" y="0" type="line"/>
      <point x="164" y="0" type="line"/>
      <point x="164" y="323" type="line"/>
      <point x="394" y="323" type="line"/>
    </contour>
    <component base="descTail-cy.case" xOffset="219"/>
  </outline>
</glyph>
<glyph name="entail-cy" format="2">
  <advance width="600"/>
  <unicode hex="04CA"/>
  <anchor x="499" y="0" name="_bottom"/>
  <outline>
    <contour>
      <point x="392" y="0" type="line"/>
      <point x="484" y="0" type="line"/>
      <point x="484" y="527" type="line"/>
      <point x="392" y="527" type="line"/>
      <point x="392" y="306" type="line"/>
      <point x="190" y="306" type="line"/>
      <point x="190" y="527" type="line"/>
      <point x="98" y="527" type="line"/>
      <point x="98" y="0" type="line"/>
      <point x="190" y="0" type="line"/>
      <point x="190" y="232" type="line"/>
      <point x="392" y="232" type="line"/>
    </contour>
    <component base="descTail-cy" xOffset="191"/>
  </outline>
</glyph>
<glyph name="chekhakassian-cy" format="2">
  <advance width="600"/>
  <unicode hex="04CC"/>
  <anchor x="375" y="0" name="_bottom"/>
  <anchor x="300" y="-202" name="bottom"/>
  <anchor x="300" y="527" name="top"/>
  <outline>
    <contour>
      <point x="493" y="527" type="line"/>
      <point x="401" y="527" type="line"/>
      <point x="401" y="301" type="line"/>
      <point x="370" y="266"/>
      <point x="311" y="244"/>
      <point x="262" y="244" type="curve" smooth="yes"/>
      <point x="202" y="244"/>
      <point x="173" y="271"/>
      <point x="173" y="339" type="curve" smooth="yes"/>
      <point x="173" y="527" type="line"/>
      <point x="81" y="527" type="line"/>
      <point x="81" y="328" type="line" smooth="yes"/>
      <point x="81" y="230"/>
      <point x="134" y="172"/>
      <point x="237" y="172" type="curve" smooth="yes"/>
      <point x="302" y="172"/>
      <point x="362" y="195"/>
      <point x="401" y="230" type="curve"/>
      <point x="401" y="0" type="line"/>
      <point x="493" y="0" type="line"/>
    </contour>
    <component base="descStraight-cy" xScale="-1" xOffset="679"/>
  </outline>
</glyph>
<glyph name="Gestrokehook-cy" format="2">
  <advance width="600"/>
  <unicode hex="04FA"/>
  <anchor x="221" y="0" name="bottom"/>
  <anchor x="278" y="0" name="bottomright"/>
  <anchor x="389" y="689" name="top"/>
  <outline>
    <contour>
      <point x="233" y="78" type="line"/>
      <point x="233" y="0" type="line"/>
      <point x="329" y="0" type="line"/>
      <point x="329" y="78" type="line"/>
    </contour>
    <component base="Ghestroke-cy" xOffset="12"/>
    <component base="hookHELPER.case" xOffset="33"/>
  </outline>
</glyph>
<glyph name="gestrokehook-cy" format="2">
  <advance width="600"/>
  <unicode hex="04FB"/>
  <anchor x="300" y="-202" name="bottom"/>
  <anchor x="286" y="0" name="bottomright"/>
  <anchor x="300" y="527" name="top"/>
  <outline>
    <contour>
      <point x="258" y="74" type="line"/>
      <point x="258" y="0" type="line"/>
      <point x="354" y="0" type="line"/>
      <point x="354" y="74" type="line"/>
    </contour>
    <component base="ghestroke-cy"/>
    <component base="hookHELPER" xOffset="58"/>
  </outline>
</glyph>
<glyph name="Hahook-cy" format="2">
  <advance width="600"/>
  <unicode hex="04FC"/>
  <anchor x="285" y="0" name="bottom"/>
  <anchor x="512" y="0" name="bottomright"/>
  <anchor x="285" y="689" name="top"/>
  <outline>
    <contour>
      <point x="484" y="0" type="line"/>
      <point x="580" y="0" type="line"/>
      <point x="580" y="78" type="line"/>
      <point x="484" y="78" type="line"/>
    </contour>
    <component base="X" xOffset="-15"/>
    <component base="hookHELPER.case" xOffset="284"/>
  </outline>
</glyph>
<glyph name="hahook-cy" format="2">
  <advance width="600"/>
  <unicode hex="04FD"/>
  <anchor x="300" y="-202" name="bottom"/>
  <anchor x="483" y="0" name="bottomright"/>
  <anchor x="300" y="527" name="top"/>
  <outline>
    <contour>
      <point x="428" y="74" type="line"/>
      <point x="428" y="0" type="line"/>
      <point x="554" y="0" type="line"/>
      <point x="554" y="74" type="line"/>
    </contour>
    <component base="hookHELPER" xOffset="258"/>
    <component base="x" xOffset="-10"/>
  </outline>
</glyph>
<glyph name="hastroke-cy" format="2">
  <advance width="600"/>
  <unicode hex="04FF"/>
  <anchor x="300" y="0" name="bottom"/>
  <anchor x="300" y="527" name="top"/>
  <outline>
    <contour>
      <point x="156" y="0" type="line"/>
      <point x="300" y="233" type="line"/>
      <point x="437" y="0" type="line"/>
      <point x="548" y="0" type="line"/>
      <point x="355" y="282" type="line"/>
      <point x="524" y="527" type="line"/>
      <point x="420" y="527" type="line"/>
      <point x="300" y="324" type="line"/>
      <point x="183" y="527" type="line"/>
      <point x="75" y="527" type="line"/>
      <point x="245" y="278" type="line"/>
      <point x="52" y="0" type="line"/>
    </contour>
    <component base="hyphen" xScale="1.1" yScale="0.8" xOffset="-30" yOffset="31"/>
  </outline>
</glyph>
<glyph name="Komide-cy" format="2">
  <advance width="600"/>
  <unicode hex="0500"/>
  <anchor x="300" y="0" name="bottom"/>
  <anchor x="300" y="689" name="top"/>
  <outline>
    <contour>
      <point x="303" y="0" type="curve" smooth="yes"/>
      <point x="510" y="0" type="line"/>
      <point x="510" y="689" type="line"/>
      <point x="415" y="689" type="line"/>
      <point x="415" y="430" type="line"/>
      <point x="309" y="430" type="line" smooth="yes"/>
      <point x="148" y="430"/>
      <point x="46" y="350"/>
      <point x="46" y="212" type="curve" smooth="yes"/>
      <point x="46" y="68"/>
      <point x="156" y="0"/>
    </contour>
    <contour>
      <point x="305" y="76" type="line" smooth="yes"/>
      <point x="214" y="76"/>
      <point x="147" y="110"/>
      <point x="147" y="212" type="curve" smooth="yes"/>
      <point x="147" y="312"/>
      <point x="207" y="356"/>
      <point x="308" y="356" type="curve" smooth="yes"/>
      <point x="415" y="356" type="line"/>
      <point x="415" y="76" type="line"/>
    </contour>
  </outline>
</glyph>
<glyph name="komidzje-cy" format="2">
  <advance width="600"/>
  <unicode hex="0507"/>
  <anchor x="490" y="0" name="_bottom"/>
  <anchor x="300" y="-202" name="bottom"/>
  <anchor x="300" y="527" name="top"/>
  <outline>
    <contour>
      <point x="115" y="201" type="line"/>
      <point x="280" y="201" type="line"/>
      <point x="402" y="220"/>
      <point x="469" y="270"/>
      <point x="469" y="366" type="curve" smooth="yes"/>
      <point x="469" y="471"/>
      <point x="391" y="527"/>
      <point x="249" y="527" type="curve" smooth="yes"/>
      <point x="76" y="527" type="line"/>
      <point x="76" y="457" type="line"/>
      <point x="248" y="457" type="line" smooth="yes"/>
      <point x="331" y="457"/>
      <point x="373" y="430"/>
      <point x="373" y="366" type="curve" smooth="yes"/>
      <point x="373" y="298"/>
      <point x="331" y="272"/>
      <point x="261" y="272" type="curve" smooth="yes"/>
      <point x="115" y="272" type="line"/>
    </contour>
    <contour>
      <point x="399" y="0" type="line"/>
      <point x="503" y="0" type="line"/>
      <point x="344" y="238" type="line"/>
      <point x="257" y="225" type="line"/>
    </contour>
    <component base="descStraight-cy" xOffset="186"/>
  </outline>
</glyph>
<glyph name="Lha-cy" format="2">
  <advance width="600"/>
  <unicode hex="0514"/>
  <anchor x="300" y="0" name="bottom"/>
  <anchor x="300" y="689" name="top"/>
  <outline>
    <contour>
      <point x="170" y="609" type="line"/>
      <point x="291" y="609" type="line"/>
      <point x="291" y="689" type="line"/>
      <point x="103" y="689" type="line"/>
    </contour>
    <contour>
      <point x="209" y="689" type="line"/>
      <point x="345" y="368" type="line"/>
      <point x="195" y="0" type="line"/>
      <point x="284" y="0" type="line"/>
      <point x="397" y="303" type="line"/>
      <point x="515" y="0" type="line"/>
      <point x="608" y="0" type="line"/>
      <point x="455" y="369" type="line"/>
      <point x="590" y="689" type="line"/>
      <point x="502" y="689" type="line"/>
      <point x="403" y="430" type="line"/>
      <point x="302" y="689" type="line"/>
    </contour>
    <contour>
      <point x="186" y="613" type="line"/>
      <point x="102" y="689" type="line"/>
      <point x="79" y="395" type="line" smooth="yes"/>
      <point x="58" y="125"/>
      <point x="39" y="90"/>
      <point x="2" y="52" type="curve"/>
      <point x="53" y="-12" type="line"/>
      <point x="118" y="49"/>
      <point x="149" y="91"/>
      <point x="169" y="375" type="curve" smooth="yes"/>
    </contour>
  </outline>
</glyph>
<glyph name="Aleutka-cy" format="2">
  <advance width="600"/>
  <unicode hex="051E"/>
  <anchor x="295" y="0" name="bottom"/>
  <anchor x="534" y="0" name="bottomright"/>
  <anchor x="315" y="689" name="top"/>
  <outline>
    <contour>
      <point x="229" y="597" type="line"/>
      <point x="527" y="410" type="line"/>
      <point x="565" y="469" type="line"/>
      <point x="267" y="656" type="line"/>
    </contour>
    <component base="Ka-cy" xOffset="-5"/>
  </outline>
</glyph>
<glyph name="aleutka-cy" format="2">
  <advance width="600"/>
  <unicode hex="051F"/>
  <anchor x="300" y="0" name="bottom"/>
  <anchor x="516" y="0" name="bottomright"/>
  <anchor x="300" y="527" name="top"/>
  <outline>
    <contour>
      <point x="257" y="440" type="line"/>
      <point x="499" y="288" type="line"/>
      <point x="535" y="344" type="line"/>
      <point x="293" y="496" type="line"/>
    </contour>
    <component base="ka-cy" xOffset="-2"/>
  </outline>
</glyph>
<glyph name="Shhadescender-cy" format="2">
  <advance width="600"/>
  <unicode hex="0526"/>
  <anchor x="556" y="0" name="_bottom"/>
  <outline>
    <contour>
      <point x="342" y="452" type="curve" smooth="yes"/>
      <point x="262" y="452"/>
      <point x="206" y="421"/>
      <point x="165" y="372" type="curve"/>
      <point x="165" y="284" type="line"/>
      <point x="204" y="338"/>
      <point x="250" y="371"/>
      <point x="320" y="371" type="curve" smooth="yes"/>
      <point x="408" y="371"/>
      <point x="448" y="323"/>
      <point x="448" y="234" type="curve" smooth="yes"/>
      <point x="448" y="0" type="line"/>
      <point x="543" y="0" type="line"/>
      <point x="543" y="235" type="line" smooth="yes"/>
      <point x="543" y="371"/>
      <point x="469" y="452"/>
    </contour>
    <contour>
      <point x="175" y="689" type="line"/>
      <point x="80" y="689" type="line"/>
      <point x="80" y="0" type="line"/>
      <point x="175" y="0" type="line"/>
    </contour>
    <component base="descStraight-cy.case" xOffset="242"/>
  </outline>
</glyph>
<glyph name="Dche-cy" format="2">
  <advance width="600"/>
  <unicode hex="052C"/>
  <anchor x="98" y="0" name="_bottom"/>
  <anchor x="300" y="-202" name="bottom"/>
  <anchor x="300" y="689" name="top"/>
  <outline>
    <contour>
      <point x="90" y="0" type="line"/>
      <point x="528" y="0" type="line"/>
      <point x="528" y="689" type="line"/>
      <point x="246" y="689" type="line"/>
      <point x="222" y="489" type="line" smooth="yes"/>
      <point x="192" y="240"/>
      <point x="136" y="128"/>
      <point x="90" y="78" type="curve"/>
    </contour>
    <contour>
      <point x="183" y="78" type="line"/>
      <point x="239" y="137"/>
      <point x="287" y="224"/>
      <point x="316" y="485" type="curve" smooth="yes"/>
      <point x="330" y="611" type="line"/>
      <point x="436" y="611" type="line"/>
      <point x="436" y="78" type="line"/>
    </contour>
    <contour>
      <point x="56" y="689" type="line"/>
      <point x="56" y="556" type="line" smooth="yes"/>
      <point x="57" y="395"/>
      <point x="132" y="331"/>
      <point x="294" y="331" type="curve"/>
      <point x="453" y="331" type="line"/>
      <point x="453" y="407" type="line"/>
      <point x="298" y="407" type="line" smooth="yes"/>
      <point x="184" y="407"/>
      <point x="150" y="453"/>
      <point x="150" y="559" type="curve" smooth="yes"/>
      <point x="150" y="689" type="line"/>
    </contour>
    <component base="descStraight-cy.case" xScale="-1" xOffset="412"/>
    <component base="descStraight-cy.case" xOffset="206"/>
  </outline>
</glyph>
<glyph name="psilivaria" format="2">
  <advance width="600"/>
  <unicode hex="1FCD"/>
  <anchor x="305" y="527" name="_top"/>
  <anchor x="467" y="798" name="_topleft"/>
  <anchor x="218" y="802" name="top"/>
  <outline>
    <contour>
      <point x="389" y="797" type="line"/>
      <point x="306" y="776" type="line"/>
      <point x="376" y="575" type="line"/>
      <point x="436" y="591" type="line"/>
    </contour>
    <component base="psili" xOffset="-84" yOffset="-7"/>
  </outline>
</glyph>
<glyph name="psilioxia" format="2">
  <advance width="600"/>
  <unicode hex="1FCE"/>
  <anchor x="261" y="527" name="_top"/>
  <anchor x="453" y="798" name="_topleft"/>
  <anchor x="263" y="805" name="top"/>
  <outline>
    <contour>
      <point x="347" y="797" type="line"/>
      <point x="300" y="591" type="line"/>
      <point x="360" y="575" type="line"/>
      <point x="430" y="776" type="line"/>
    </contour>
    <component base="psili" xOffset="-84" yOffset="-7"/>
  </outline>
</glyph>
<glyph name="psiliperispomeni" format="2">
  <advance width="600"/>
  <unicode hex="1FCF"/>
  <anchor x="284" y="527" name="_top"/>
  <anchor x="468" y="860" name="_topleft"/>
  <anchor x="312" y="869" name="top"/>
  <outline>
    <contour>
      <point x="256" y="577" type="line"/>
      <point x="309" y="577" type="line"/>
      <point x="329" y="613" type="line" smooth="yes"/>
      <point x="353" y="656"/>
      <point x="358" y="673"/>
      <point x="358" y="690" type="curve" smooth="yes"/>
      <point x="358" y="722"/>
      <point x="334" y="746"/>
      <point x="301" y="746" type="curve" smooth="yes"/>
      <point x="268" y="746"/>
      <point x="243" y="722"/>
      <point x="243" y="690" type="curve" smooth="yes"/>
      <point x="243" y="668"/>
      <point x="253" y="652"/>
      <point x="275" y="639" type="curve"/>
    </contour>
    <component base="perispomeni" yOffset="95"/>
  </outline>
</glyph>
<glyph name="dasiavaria" format="2">
  <advance width="600"/>
  <unicode hex="1FDD"/>
  <anchor x="325" y="527" name="_top"/>
  <anchor x="467" y="798" name="_topleft"/>
  <anchor x="327" y="805" name="top"/>
  <outline>
    <contour>
      <point x="389" y="797" type="line"/>
      <point x="306" y="776" type="line"/>
      <point x="376" y="575" type="line"/>
      <point x="436" y="591" type="line"/>
    </contour>
    <component base="dasia" xOffset="-83" yOffset="-7"/>
  </outline>
</glyph>
<glyph name="dasiaoxia" format="2">
  <advance width="600"/>
  <unicode hex="1FDE"/>
  <anchor x="285" y="527" name="_top"/>
  <anchor x="447" y="798" name="_topleft"/>
  <anchor x="188" y="802" name="top"/>
  <outline>
    <contour>
      <point x="347" y="797" type="line"/>
      <point x="300" y="591" type="line"/>
      <point x="360" y="575" type="line"/>
      <point x="430" y="776" type="line"/>
    </contour>
    <component base="dasia" xOffset="-84" yOffset="-6"/>
  </outline>
</glyph>
<glyph name="dasiaperispomeni" format="2">
  <advance width="600"/>
  <unicode hex="1FDF"/>
  <anchor x="296" y="527" name="_top"/>
  <anchor x="468" y="860" name="_topleft"/>
  <anchor x="298" y="870" name="top"/>
  <outline>
    <contour>
      <point x="341" y="578" type="line"/>
      <point x="322" y="640" type="line"/>
      <point x="344" y="653"/>
      <point x="354" y="669"/>
      <point x="354" y="691" type="curve" smooth="yes"/>
      <point x="354" y="723"/>
      <point x="329" y="747"/>
      <point x="296" y="747" type="curve" smooth="yes"/>
      <point x="263" y="747"/>
      <point x="239" y="723"/>
      <point x="239" y="691" type="curve" smooth="yes"/>
      <point x="239" y="674"/>
      <point x="244" y="657"/>
      <point x="268" y="614" type="curve" smooth="yes"/>
      <point x="288" y="578" type="line"/>
    </contour>
    <component base="perispomeni" xOffset="-1" yOffset="96"/>
  </outline>
</glyph>
<glyph name="dasia" format="2">
  <advance width="600"/>
  <unicode hex="1FFE"/>
  <anchor x="337" y="527" name="_top"/>
  <anchor x="402" y="792" name="_topleft"/>
  <anchor x="302" y="802" name="top"/>
  <outline>
    <contour>
      <point x="297" y="809" type="curve" smooth="yes"/>
      <point x="265" y="809"/>
      <point x="240" y="785"/>
      <point x="240" y="753" type="curve" smooth="yes"/>
      <point x="240" y="735"/>
      <point x="245" y="719"/>
      <point x="256" y="695" type="curve" smooth="yes"/>
      <point x="306" y="589" type="line"/>
      <point x="360" y="589" type="line"/>
      <point x="331" y="706" type="line"/>
      <point x="345" y="717"/>
      <point x="354" y="734"/>
      <point x="354" y="753" type="curve" smooth="yes"/>
      <point x="354" y="785"/>
      <point x="329" y="809"/>
    </contour>
  </outline>
</glyph>
<glyph name="boxHeavyHorizontal" format="2">
  <advance width="600"/>
  <unicode hex="2501"/>
  <outline>
    <contour>
      <point x="605" y="470" type="line"/>
      <point x="-5" y="470" type="line"/>
      <point x="-5" y="230" type="line"/>
      <point x="605" y="230" type="line"/>
    </contour>
  </outline>
</glyph>
<glyph name="boxHeavyVertical" format="2">
  <advance width="600"/>
  <unicode hex="2503"/>
  <outline>
    <contour>
      <point x="420" y="1000" type="line"/>
      <point x="180" y="1000" type="line"/>
      <point x="180" y="-500" type="line"/>
      <point x="420" y="-500" type="line"/>
    </contour>
  </outline>
</glyph>
<glyph name="boxHeavyDownAndHorizontal" format="2">
  <advance width="600"/>
  <unicode hex="2533"/>
  <outline>
    <contour>
      <point x="605" y="470" type="line"/>
      <point x="-5" y="470" type="line"/>
      <point x="-5" y="230" type="line"/>
      <point x="180" y="230" type="line"/>
      <point x="180" y="-500" type="line"/>
      <point x="420" y="-500" type="line"/>
      <point x="420" y="230" type="line"/>
      <point x="605" y="230" type="line"/>
    </contour>
  </outline>
</glyph>
<glyph name="boxHeavyDoubleDashHorizontal" format="2">
  <advance width="600"/>
  <unicode hex="254D"/>
  <outline>
    <contour>
      <point x="605" y="470" type="line"/>
      <point x="420" y="470" type="line"/>
      <point x="420" y="230" type="line"/>
      <point x="605" y="230" type="line"/>
    </contour>
    <contour>
      <point x="180" y="470" type="line"/>
      <point x="-5" y="470" type="line"/>
      <point x="-5" y="230" type="line"/>
      <point x="180" y="230" type="line"/>
    </contour>
  </outline>
</glyph>
<glyph name="SF380000" format="2">
  <advance width="600"/>
  <unicode hex="255A"/>
  <outline>
    <contour>
      <point x="260" y="1000" type="line"/>
      <point x="180" y="1000" type="line"/>
      <point x="180" y="230" type="line"/>
      <point x="605" y="230" type="line"/>
      <point x="605" y="310" type="line"/>
      <point x="260" y="310" type="line"/>
    </contour>
    <contour>
      <point x="420" y="1000" type="line"/>
      <point x="340" y="1000" type="line"/>
      <point x="340" y="390" type="line"/>
      <point x="605" y="390" type="line"/>
      <point x="605" y="470" type="line"/>
      <point x="420" y="470" type="line"/>
    </contour>
  </outline>
</glyph>
<glyph name="boxLightDiagonalUpperLeftToLowerRight" format="2">
  <advance width="600"/>
  <unicode hex="2572"/>
  <outline>
    <contour>
      <point x="113" y="594" type="line"/>
      <point x="56" y="537" type="line"/>
      <point x="487" y="106" type="line"/>
      <point x="544" y="163" type="line"/>
    </contour>
  </outline>
</glyph>
<glyph name="lowerSevenEighthsBlock" format="2">
  <advance width="600"/>
  <unicode hex="2587"/>
  <outline>
    <contour>
      <point x="600" y="812" type="line"/>
      <point x="0" y="812" type="line"/>
      <point x="0" y="-500" type="line"/>
      <point x="600" y="-500" type="line"/>
    </contour>
  </outline>
</glyph>
<glyph name="leftThreeQuartersBlock" format="2">
  <advance width="600"/>
  <unicode hex="258A"/>
  <outline>
    <contour>
      <point x="450" y="1000" type="line"/>
      <point x="0" y="1000" type="line"/>
      <point x="0" y="-500" type="line"/>
      <point x="450" y="-500" type="line"/>
    </contour>
  </outline>
</glyph>
<glyph name="leftBlock" format="2">
  <advance width="600"/>
  <unicode hex="258C"/>
  <outline>
    <contour>
      <point x="300" y="1000" type="line"/>
      <point x="0" y="1000" type="line"/>
      <point x="0" y="-500" type="line"/>
      <point x="300" y="-500" type="line"/>
    </contour>
  </outline>
</glyph>
<glyph name="leftOneQuarterBlock" format="2">
  <advance width="600"/>
  <unicode hex="258E"/>
  <outline>
    <contour>
      <point x="150" y="1000" type="line"/>
      <point x="0" y="1000" type="line"/>
      <point x="0" y="-500" type="line"/>
      <point x="150" y="-500" type="line"/>
    </contour>
  </outline>
</glyph>
<glyph name="triaglf" format="2">
  <advance width="600"/>
  <unicode hex="25C4"/>
  <outline>
    <contour>
      <point x="570" y="540" type="line"/>
      <point x="30" y="270" type="line"/>
      <point x="570" y="0" type="line"/>
    </contour>
  </outline>
</glyph>
<glyph name="lowerRightArc" format="2">
  <advance width="600"/>
  <unicode hex="25DE"/>
  <outline>
    <contour>
      <point x="110" y="270" type="curve"/>
      <point x="30" y="270" type="line"/>
      <point x="30" y="120"/>
      <point x="150" y="0"/>
      <point x="300" y="0" type="curve"/>
      <point x="300" y="80" type="line"/>
      <point x="195" y="80"/>
      <point x="110" y="165"/>
    </contour>
  </outline>
</glyph>
<glyph name="TseHelper-cy" format="2">
  <advance width="600"/>
  <anchor x="300" y="0" name="bottom"/>
  <anchor x="530" y="0" name="bottomright"/>
  <outline>
    <contour>
      <point x="80" y="0" type="line"/>
      <point x="520" y="0" type="line"/>
      <point x="520" y="689" type="line"/>
      <point x="425" y="689" type="line"/>
      <point x="425" y="78" type="line"/>
      <point x="175" y="78" type="line"/>
      <point x="175" y="689" type="line"/>
      <point x="80" y="689" type="line"/>
    </contour>
  </outline>
</glyph>
<glyph name="acute.case" format="2">
  <advance width="600"/>
  <anchor x="298" y="689" name="_top"/>
  <outline>
    <contour>
      <point x="380" y="911" type="line"/>
      <point x="180" y="804" type="line"/>
      <point x="204" y="755" type="line"/>
      <point x="420" y="834" type="line"/>
    </contour>
  </outline>
</glyph>
<glyph name="acute.case.loclPLK" format="2">
  <advance width="600"/>
  <anchor x="265" y="689" name="_top"/>
  <outline>
    <contour>
      <point x="317" y="921" type="line"/>
      <point x="212" y="757" type="line"/>
      <point x="257" y="729" type="line"/>
      <point x="389" y="874" type="line"/>
    </contour>
  </outline>
</glyph>
<glyph name="acute.loclPLK" format="2">
  <advance width="600"/>
  <anchor x="265" y="527" name="_top"/>
  <outline>
    <contour>
      <point x="316" y="777" type="line"/>
      <point x="212" y="605" type="line"/>
      <point x="257" y="577" type="line"/>
      <point x="388" y="730" type="line"/>
    </contour>
  </outline>
</glyph>
<glyph name="breve.case" format="2">
  <advance width="600"/>
  <anchor x="301" y="689" name="_top"/>
  <outline>
    <contour>
      <point x="299" y="758" type="curve" smooth="yes"/>
      <point x="380" y="758"/>
      <point x="444" y="807"/>
      <point x="452" y="881" type="curve"/>
      <point x="391" y="894" type="line"/>
      <point x="377" y="854"/>
      <point x="346" y="828"/>
      <point x="299" y="828" type="curve" smooth="yes"/>
      <point x="252" y="828"/>
      <point x="224" y="854"/>
      <point x="210" y="894" type="curve"/>
      <point x="149" y="881" type="line"/>
      <point x="157" y="807"/>
      <point x="219" y="758"/>
    </contour>
  </outline>
</glyph>
<glyph name="caron.alt" format="2">
  <advance width="600"/>
  <anchor x="241" y="689" name="_topright"/>
  <outline>
    <contour>
      <point x="277" y="699" type="line"/>
      <point x="251" y="513" type="line"/>
      <point x="304" y="505" type="line"/>
      <point x="360" y="689" type="line"/>
    </contour>
  </outline>
</glyph>
<glyph name="caron.case" format="2">
  <advance width="600"/>
  <anchor x="300" y="689" name="_top"/>
  <outline>
    <contour>
      <point x="427" y="909" type="line"/>
      <point x="300" y="828" type="line"/>
      <point x="174" y="909" type="line"/>
      <point x="134" y="864" type="line"/>
      <point x="270" y="754" type="line"/>
      <point x="331" y="754" type="line"/>
      <point x="466" y="864" type="line"/>
    </contour>
  </outline>
</glyph>
<glyph name="circumflex.case" format="2">
  <advance width="600"/>
  <anchor x="300" y="689" name="_top"/>
  <outline>
    <contour>
      <point x="331" y="914" type="line"/>
      <point x="270" y="914" type="line"/>
      <point x="134" y="804" type="line"/>
      <point x="174" y="759" type="line"/>
      <point x="300" y="840" type="line"/>
      <point x="427" y="759" type="line"/>
      <point x="466" y="804" type="line"/>
    </contour>
  </outline>
</glyph>
<glyph name="descStraight-cy.case" format="2">
  <advance width="600"/>
  <anchor x="314" y="0" name="_bottom"/>
  <anchor x="194" y="0" name="_bottomleft"/>
  <anchor x="309" y="0" name="_bottomright"/>
  <outline>
    <contour>
      <point x="359" y="78" type="line"/>
      <point x="256" y="78" type="line"/>
      <point x="246" y="0" type="line"/>
      <point x="269" y="0" type="line"/>
      <point x="284" y="-150" type="line"/>
      <point x="359" y="-150" type="line"/>
    </contour>
  </outline>
</glyph>
<glyph name="descStraight-cy" format="2">
  <advance width="600"/>
  <anchor x="304" y="0" name="_bottom"/>
  <anchor x="176" y="0" name="_bottomleft"/>
  <anchor x="279" y="0" name="_bottomright"/>
  <outline>
    <contour>
      <point x="349" y="74" type="line"/>
      <point x="223" y="74" type="line"/>
      <point x="223" y="0" type="line"/>
      <point x="259" y="0" type="line"/>
      <point x="274" y="-150" type="line"/>
      <point x="349" y="-150" type="line"/>
    </contour>
  </outline>
</glyph>
<glyph name="descTail-cy.case" format="2">
  <advance width="600"/>
  <anchor x="305" y="0" name="_bottom"/>
  <anchor x="180" y="0" name="_bottomleft"/>
  <anchor x="280" y="0" name="_bottomright"/>
  <outline>
    <contour>
      <point x="360" y="78" type="line"/>
      <point x="221" y="78" type="line"/>
      <point x="221" y="0" type="line"/>
      <point x="240" y="0" type="line"/>
      <point x="205" y="-150" type="line"/>
      <point x="280" y="-150" type="line"/>
    </contour>
  </outline>
</glyph>
<glyph name="descTail-cy" format="2">
  <advance width="600"/>
  <anchor x="308" y="0" name="_bottom"/>
  <anchor x="280" y="0" name="_bottomleft"/>
  <anchor x="283" y="0" name="_bottomright"/>
  <outline>
    <contour>
      <point x="373" y="74" type="line"/>
      <point x="227" y="74" type="line"/>
      <point x="227" y="0" type="line"/>
      <point x="263" y="0" type="line"/>
      <point x="228" y="-150" type="line"/>
      <point x="303" y="-150" type="line"/>
    </contour>
  </outline>
</glyph>
<glyph name="dieresisacutecomb" format="2">
  <advance width="600"/>
  <anchor x="301" y="527" name="_top"/>
  <outline>
    <contour>
      <point x="196" y="738" type="curve" smooth="yes"/>
      <point x="163" y="738"/>
      <point x="138" y="713"/>
      <point x="138" y="681" type="curve" smooth="yes"/>
      <point x="138" y="649"/>
      <point x="163" y="624"/>
      <point x="196" y="624" type="curve" smooth="yes"/>
      <point x="228" y="624"/>
      <point x="253" y="649"/>
      <point x="253" y="681" type="curve" smooth="yes"/>
      <point x="253" y="713"/>
      <point x="228" y="738"/>
    </contour>
    <contour>
      <point x="405" y="738" type="curve" smooth="yes"/>
      <point x="373" y="738"/>
      <point x="348" y="713"/>
      <point x="348" y="681" type="curve" smooth="yes"/>
      <point x="348" y="649"/>
      <point x="373" y="624"/>
      <point x="405" y="624" type="curve" smooth="yes"/>
      <point x="438" y="624"/>
      <point x="463" y="649"/>
      <point x="463" y="681" type="curve" smooth="yes"/>
      <point x="463" y="713"/>
      <point x="438" y="738"/>
    </contour>
    <contour>
      <point x="383" y="893" type="line"/>
      <point x="265" y="748" type="line"/>
      <point x="303" y="713" type="line"/>
      <point x="439" y="839" type="line"/>
    </contour>
  </outline>
</glyph>
<glyph name="grave.case" format="2">
  <advance width="600"/>
  <anchor x="300" y="689" name="_top"/>
  <outline>
    <contour>
      <point x="230" y="914" type="line"/>
      <point x="182" y="837" type="line"/>
      <point x="391" y="755" type="line"/>
      <point x="418" y="804" type="line"/>
    </contour>
  </outline>
</glyph>
<glyph name="tonos.case" format="2">
  <advance width="600"/>
  <anchor x="381" y="689" name="_topleft"/>
  <outline>
    <contour>
      <point x="266" y="707" type="line"/>
      <point x="229" y="501" type="line"/>
      <point x="298" y="490" type="line"/>
      <point x="371" y="689" type="line"/>
    </contour>
  </outline>
</glyph>
<glyph name="tsehelper-cy" format="2">
  <advance width="600"/>
  <anchor x="300" y="0" name="bottom"/>
  <anchor x="513" y="0" name="bottomright"/>
  <outline>
    <contour>
      <point x="411" y="527" type="line"/>
      <point x="411" y="75" type="line"/>
      <point x="189" y="75" type="line"/>
      <point x="189" y="527" type="line"/>
      <point x="97" y="527" type="line"/>
      <point x="97" y="0" type="line"/>
      <point x="503" y="0" type="line"/>
      <point x="503" y="527" type="line"/>
    </contour>
  </outline>
</glyph>
<glyph name="varia.case" format="2">
  <advance width="600"/>
  <anchor x="391" y="689" name="_topleft"/>
  <outline>
    <contour>
      <point x="334" y="707" type="line"/>
      <point x="229" y="689" type="line"/>
      <point x="302" y="490" type="line"/>
      <point x="371" y="501" type="line"/>
    </contour>
  </outline>
</glyph>
